<svg width="128" height="128" viewBox="0 0 128 128" xmlns="http://www.w3.org/2000/svg">
<path fill-rule="evenodd" d="M93.0816 7.52933C91.3152 3.15493 86.6219 0 81.0667 0H46.9334C41.3781 0 36.6848 3.15487 34.9184 7.52933H17.4592H8.72959V7.52933C3.91883 7.52933 0 11.4292 0 16.24V16.24V23.225V30.21V44.18V72.12V100.06V114.03V121.015V121.015C0 124.873 3.12729 128 6.985 128H120.471C124.629 128 128 124.629 128 120.471V120.471V112.941V97.8823V67.7647V37.647V22.5882V15.0588V15.0588C128 10.9004 124.629 7.52933 120.471 7.52933H93.0816ZM119.467 120.471H8.53339V15.0588H34.1333V30.1177H93.8667V15.0588H119.467V120.471ZM42.6667 15.0588V11.2941C42.6667 9.21607 44.5781 7.5294 46.9333 7.5294H81.0667C83.4219 7.5294 85.3333 9.21607 85.3333 11.2942V22.5883H42.6667V15.0588ZM25.6017 67.7647H51.2016V45.1765H25.6017V67.7647ZM34.135 60.2353H42.6683V52.7059H34.135V60.2353ZM59.735 52.7059H102.402V45.1765H59.735V52.7059ZM59.735 90.3529H102.402V82.8235H59.735V90.3529ZM59.735 67.7647H85.335V60.2353H59.735V67.7647ZM59.735 105.412H85.335V97.8824H59.735V105.412ZM34.135 97.8823H42.6683V90.3529H34.135V97.8823ZM25.6017 105.412H51.2016V82.8235H25.6017V105.412Z"/>
</svg>
