<svg width="128" height="128" viewBox="0 0 128 128" xmlns="http://www.w3.org/2000/svg">
<path d="M82.5885 27.9282L90.5763 29.5282C91.0429 29.6217 91.4585 29.846 91.7559 30.1648C92.0533 30.4835 92.2151 30.8781 92.2151 31.2846V46.7013C92.2152 47.1173 92.0457 47.5206 91.7355 47.8428C91.4252 48.1651 90.9932 48.3866 90.5125 48.4698L82.6807 49.8111C82.338 49.8709 82.018 50.0014 81.7489 50.1911C81.4799 50.3807 81.2701 50.6237 81.1383 50.8985C81.0064 51.1733 80.9564 51.4714 80.9929 51.7665C81.0293 52.0615 81.1509 52.3444 81.347 52.5901L85.5325 57.8533C85.8114 58.2027 85.9371 58.6238 85.8879 59.0436C85.8387 59.4633 85.6175 59.8552 85.2629 60.1511L72.0964 71.0625C71.7552 71.3458 71.3115 71.5236 70.8367 71.5673C70.3619 71.6109 69.8836 71.5179 69.4787 71.3031L61.8598 67.2489C61.5695 67.0945 61.2396 67.0017 60.898 66.9785C60.5564 66.9553 60.2133 67.0025 59.8978 67.1158C59.5823 67.2292 59.3038 67.4055 59.0858 67.6298C58.8679 67.854 58.7171 68.1196 58.6462 68.4038L57.0146 74.8821C56.9127 75.2844 56.6517 75.645 56.275 75.9043C55.8983 76.1636 55.4283 76.3059 54.9431 76.3077H36.3568C35.8846 76.3067 35.4262 76.1726 35.0538 75.9265C34.6814 75.6804 34.416 75.3363 34.2995 74.9483L32.2778 68.2474C32.1943 67.9704 32.0343 67.7142 31.8112 67.4999C31.588 67.2856 31.308 67.1193 30.9941 67.0147C30.6803 66.9102 30.3417 66.8703 30.0061 66.8985C29.6706 66.9267 29.3477 67.022 29.0642 67.1768L22.2823 70.8941C21.8755 71.118 21.3907 71.2174 20.9083 71.1759C20.4258 71.1343 19.9745 70.9542 19.6291 70.6655L6.48393 59.706C6.13247 59.4127 5.91203 59.025 5.86028 58.6092C5.80852 58.1934 5.92866 57.7753 6.20017 57.4263L10.939 51.3029C11.1288 51.0569 11.2449 50.7753 11.2772 50.4825C11.3094 50.1898 11.2568 49.8948 11.1239 49.6233C10.9911 49.3517 10.782 49.1118 10.5148 48.9244C10.2477 48.737 9.93058 48.6078 9.59111 48.548L1.69547 47.1524C1.21607 47.068 0.785669 46.846 0.476819 46.5239C0.167968 46.2018 -0.000435096 45.7992 8.44254e-07 45.384V30.0455C0.000851421 29.6322 0.168986 29.2317 0.4763 28.9109C0.783613 28.5901 1.21148 28.3685 1.68838 28.2831L10.109 26.7552C10.4494 26.6946 10.7672 26.5642 11.0344 26.3753C11.3017 26.1864 11.5102 25.9449 11.6418 25.6718C11.7734 25.3988 11.8241 25.1025 11.7894 24.809C11.7547 24.5155 11.6356 24.2337 11.4426 23.9883L7.27136 18.6589C6.99992 18.3117 6.87847 17.8957 6.9276 17.4812C6.97674 17.0668 7.19344 16.6796 7.54094 16.3852L20.6365 5.32939C20.9733 5.04514 21.4126 4.86466 21.8845 4.81669C22.3563 4.76873 22.8335 4.85604 23.24 5.06472L30.2843 8.69785C30.5696 8.84489 30.8916 8.93298 31.2244 8.955C31.5571 8.97702 31.8914 8.93236 32.2 8.82463C32.5087 8.71689 32.7832 8.5491 33.0012 8.33481C33.2193 8.12053 33.3749 7.86575 33.4554 7.59107L35.2785 1.36543C35.3939 0.975317 35.6598 0.629082 36.0338 0.381702C36.4078 0.134322 36.8685 -2.30483e-05 37.3429 2.9659e-09L55.9292 0.0360907C56.4216 0.0382284 56.8979 0.185074 57.2769 0.451603C57.6559 0.718133 57.9142 1.08785 58.0077 1.49776L59.6181 8.45123C59.6839 8.73901 59.8314 9.00887 60.0478 9.23747C60.2642 9.46606 60.5431 9.6465 60.8602 9.76319C61.1774 9.87988 61.5233 9.9293 61.868 9.90717C62.2127 9.88505 62.5459 9.79204 62.8388 9.63621L69.7767 5.9309C70.1794 5.71612 70.6553 5.62193 71.1285 5.66336C71.6017 5.70479 72.0449 5.87946 72.3873 6.15947L85.6673 16.9987C86.0259 17.2935 86.2508 17.6857 86.3026 18.1069C86.3545 18.5281 86.2301 18.9513 85.951 19.3025L81.3116 25.1672C81.1186 25.4094 80.9979 25.6878 80.9598 25.9783C80.9218 26.2688 80.9675 26.5628 81.0932 26.835C81.2188 27.1072 81.4205 27.3495 81.681 27.5409C81.9414 27.7324 82.2529 27.8673 82.5885 27.9342V27.9282ZM46.104 21.7927C48.9858 21.7927 51.8309 22.3406 54.43 23.396C57.0291 24.4515 59.316 25.9877 61.1223 27.8916C62.9287 29.7955 64.2086 32.0186 64.8678 34.3973C65.527 36.776 65.5488 39.2498 64.9315 41.6366C64.7584 42.309 64.2774 42.8956 63.5942 43.2673C62.9111 43.639 62.0817 43.7653 61.2887 43.6186C60.4957 43.4718 59.8039 43.0639 59.3655 42.4847C58.9272 41.9054 58.7781 41.2022 58.9512 40.5298C59.3691 38.9013 59.3521 37.2142 58.9016 35.592C58.4511 33.9698 57.5783 32.4535 56.3473 31.1543C55.1163 29.855 53.5582 28.8056 51.7871 28.083C50.0159 27.3604 48.0766 26.9827 46.1111 26.9778C44.1541 26.9796 42.2223 27.3517 40.4565 28.067C38.6906 28.7823 37.1353 29.8226 35.9039 31.1123C34.6724 32.4019 33.7959 33.9083 33.3382 35.5216C32.8805 37.1349 32.8532 38.8145 33.2582 40.4379C33.6633 42.0613 34.4905 43.5876 35.6795 44.9056C36.8685 46.2235 38.3894 47.2998 40.1313 48.0561C41.8732 48.8124 43.7921 49.2296 45.7483 49.2772C47.7044 49.3248 49.6485 49.0017 51.4387 48.3314C51.8057 48.1932 52.2013 48.1176 52.6028 48.109C53.0043 48.1004 53.4039 48.1589 53.7787 48.2812C54.1535 48.4035 54.4962 48.5873 54.7873 48.8219C55.0784 49.0565 55.3121 49.3375 55.4752 49.6487C55.6382 49.9599 55.7273 50.2954 55.7375 50.6358C55.7476 50.9762 55.6786 51.315 55.5344 51.6328C55.3901 51.9507 55.1734 52.2413 54.8967 52.4881C54.62 52.7349 54.2886 52.9331 53.9216 53.0713C51.2979 54.0596 48.447 54.5385 45.5771 54.4729C42.7072 54.4073 39.8908 53.799 37.3337 52.6923C34.7766 51.5856 32.5433 50.0085 30.7971 48.0763C29.0509 46.144 27.8358 43.9054 27.2406 41.524C26.6454 39.1426 26.6851 36.6785 27.3569 34.3118C28.0287 31.945 29.3155 29.7354 31.1233 27.8444C32.9312 25.9534 35.2144 24.4286 37.8063 23.3816C40.3981 22.3346 43.233 21.7918 46.104 21.7927ZM72.7491 48.9329L74.0899 46.7855C74.2372 46.5489 74.4448 46.343 74.6975 46.1828C74.9503 46.0226 75.2419 45.9121 75.5512 45.8592L84.0357 44.4096C84.5177 44.3276 84.9513 44.1066 85.263 43.7843C85.5747 43.4619 85.7451 43.058 85.7453 42.6411V35.2064C85.7454 34.8085 85.5903 34.4216 85.3042 34.1061C85.0181 33.7906 84.617 33.5642 84.1634 33.4621L75.7002 31.5553C75.358 31.4783 75.0439 31.3302 74.7862 31.1243C74.5286 30.9185 74.3355 30.6614 74.2246 30.3763L73.2811 27.9282C73.1837 27.6751 73.1535 27.4068 73.1928 27.1427C73.232 26.8785 73.3397 26.625 73.5081 26.4003L78.0341 20.3732C78.2985 20.0207 78.4105 19.6014 78.3509 19.1868C78.2914 18.7722 78.0641 18.3879 77.7078 18.0995L71.1813 12.7821C70.8464 12.5096 70.4155 12.3374 69.9545 12.2918C69.4934 12.2462 69.0274 12.3297 68.6275 12.5295L61.3135 16.1867C61.0095 16.3391 60.6655 16.4249 60.3125 16.4365C59.9596 16.448 59.6088 16.3849 59.2917 16.2528L56.1065 14.9295C55.8174 14.8088 55.5644 14.6341 55.3665 14.4184C55.1687 14.2027 55.0312 13.9517 54.9644 13.6844L53.2547 6.87527C53.1538 6.4699 52.8913 6.10633 52.5115 5.84564C52.1318 5.58495 51.6577 5.44302 51.1691 5.44368H41.9043C41.439 5.44386 40.9865 5.57336 40.6162 5.81237C40.2459 6.05137 39.9783 6.3867 39.8542 6.767L37.5131 13.913C37.422 14.193 37.2526 14.4502 37.0192 14.6628C36.7857 14.8753 36.4952 15.037 36.1724 15.134L33.7959 15.8378C33.4969 15.9276 33.1781 15.9597 32.8626 15.9316C32.5472 15.9035 32.2431 15.8159 31.9727 15.6754L24.4814 11.7656C24.0765 11.5531 23.5992 11.4619 23.1259 11.5066C22.6526 11.5513 22.2107 11.7293 21.8708 12.0122L15.5004 17.3596C15.1487 17.6559 14.93 18.047 14.8821 18.4654C14.8342 18.8838 14.96 19.3033 15.2379 19.6514L19.6078 25.1131C19.8237 25.3825 19.9495 25.6964 19.972 26.0215C19.9945 26.3466 19.9128 26.6708 19.7355 26.9597L18.1039 29.6184C17.9625 29.8478 17.7644 30.0488 17.5233 30.2076C17.2822 30.3664 17.0036 30.4793 16.7064 30.5387L8.10846 32.259C7.64062 32.3514 7.22337 32.5752 6.92456 32.894C6.62575 33.2129 6.46295 33.6082 6.46265 34.0155V41.402C6.46255 41.818 6.63196 42.2213 6.94221 42.5435C7.25247 42.8658 7.6845 43.0872 8.16521 43.1704L16.3091 44.6141C16.6687 44.6777 17.0027 44.8192 17.2787 45.0247C17.5547 45.2303 17.7632 45.4929 17.884 45.787L18.9836 48.4818C19.0886 48.737 19.1246 49.009 19.089 49.2776C19.0533 49.5462 18.947 49.8046 18.7778 50.0337L14.0532 56.4217C13.7954 56.7712 13.6864 57.185 13.7445 57.5943C13.8026 58.0036 14.0242 58.3837 14.3725 58.6714L20.7996 63.9827C21.1431 64.2656 21.5889 64.4421 22.0652 64.4835C22.5415 64.525 23.0204 64.4291 23.4244 64.2113L30.9299 60.1631C31.2422 59.9951 31.6007 59.8989 31.9702 59.8841C32.3396 59.8694 32.7073 59.9365 33.0368 60.0789L35.7183 61.2398C35.9913 61.3565 36.2315 61.5216 36.4225 61.724C36.6134 61.9264 36.7507 62.1613 36.825 62.4128L38.8894 69.4986C39.0034 69.8898 39.2687 70.2374 39.6428 70.486C40.0169 70.7345 40.4784 70.8697 40.9537 70.87H50.2327C50.7111 70.8704 51.1757 70.7341 51.5516 70.4831C51.9274 70.2321 52.1925 69.881 52.3041 69.4866L54.3188 62.509C54.3993 62.2286 54.5579 61.9687 54.7813 61.751C55.0047 61.5333 55.2864 61.3642 55.6029 61.2579L58.3128 60.3496C58.622 60.2455 58.9558 60.2043 59.2872 60.2294C59.6186 60.2545 59.9384 60.3451 60.2211 60.494L68.1876 64.6865C68.5918 64.8997 69.0687 64.9919 69.5419 64.9483C70.0152 64.9047 70.4575 64.7278 70.7982 64.4459L77.2183 59.1406C77.5702 58.8492 77.7922 58.4634 77.8465 58.0489C77.9008 57.6343 77.7841 57.2167 77.5163 56.8669L72.8484 50.7495C72.6424 50.4806 72.5245 50.17 72.5071 49.8496C72.4896 49.5293 72.5732 49.2108 72.7491 48.9269V48.9329Z" fill="#D9D9D9"/>
<path d="M25.0362 106.583C24.7503 106.583 20.5453 111.501 18.7525 114.322C16.3064 118.161 15.2789 122.527 18.7525 125.654C22.2193 128.782 27.8466 128.782 31.3202 125.654C34.7906 122.527 33.831 118.124 31.3202 114.322C29.8742 112.139 25.3186 106.583 25.0362 106.583Z" fill="#D9D9D9"/>
<path d="M127.085 44.5937C128.439 41.9016 128.283 39.0624 126.663 36.7997C125.081 34.5982 122.274 33.2307 119.328 33.2307C115.878 33.2307 112.932 35.0028 111.442 37.9771C110.727 39.3936 105.838 49.1375 100.058 60.6599L88.9597 82.7785C88.8916 82.9135 88.8202 83.0544 88.7487 83.1955C88.6908 83.3181 88.6262 83.4408 88.565 83.5634C88.2384 83.502 87.9118 83.4408 87.5851 83.3856C86.4148 83.1833 85.241 82.9993 84.0741 82.846C81.2877 82.4842 78.5115 82.2695 75.8135 82.2695C70.8938 82.2695 65.7362 82.9808 60.6533 84.0234C53.0289 85.5871 45.5543 87.9112 39.4644 89.8245C36.4195 90.7811 33.7147 91.6335 31.5543 92.2283C30.4791 92.5287 29.5367 92.7679 28.7849 92.9211C28.4073 92.9947 28.0772 93.0499 27.8085 93.0867C27.5398 93.1174 27.3391 93.1297 27.2232 93.1297H24.628V100.82H27.2239C27.377 100.82 27.6901 100.844 28.0983 100.905C28.8707 101.028 29.9763 101.286 31.2895 101.641C33.5963 102.279 36.5697 103.217 39.9412 104.278C44.9969 105.86 50.9643 107.7 57.1529 109.153C63.3483 110.607 69.7614 111.68 75.8139 111.68C77.6375 111.68 79.502 111.582 81.3833 111.404C85.3298 111.03 89.3512 110.312 93.2943 109.423C96.8938 108.614 100.422 107.663 103.77 106.688C107.107 105.713 110.261 104.726 113.081 103.837C115.902 102.954 118.396 102.169 120.389 101.629C121.383 101.359 122.257 101.145 122.951 101.01C123.302 100.942 123.608 100.887 123.853 100.863C124.101 100.826 124.292 100.82 124.401 100.82H126.997V93.1299H124.401C124.258 93.1299 123.986 93.1115 123.622 93.0563C122.992 92.9704 122.104 92.7742 121.053 92.4983C119.471 92.0874 117.508 91.4926 115.283 90.7997C114.171 90.4563 112.986 90.0823 111.751 89.6959C111.826 89.5427 111.908 89.3955 111.979 89.2483C115.474 82.1596 114.058 77.1128 113.197 74.0528C113.092 73.6788 112.959 73.2065 112.891 72.8876L119.318 60.0837C122.911 52.921 126.568 45.6361 127.085 44.5937ZM108.706 71.7774C107.543 74.0954 112.503 78.9212 107.873 87.9785C107.808 88.1012 107.737 88.2362 107.669 88.3649C107.658 88.3834 107.648 88.4018 107.638 88.42C107.515 88.3832 107.4 88.3465 107.277 88.3096C107.202 88.4383 107.134 88.5733 107.063 88.7081C106.434 89.8916 105.644 91.1364 104.664 92.4549C104.756 92.4855 104.845 92.51 104.933 92.5346C104.402 93.2274 103.821 93.9388 103.181 94.6625C99.789 98.5319 96.8188 101.543 94.3013 103.787C94.0903 103.977 93.8863 104.155 93.6856 104.333C89.9363 105.173 86.1396 105.854 82.4652 106.197C82.4617 106.086 82.4617 105.97 82.4687 105.86C82.4994 105.357 82.649 104.811 82.9349 104.235C83.3569 103.395 86.633 96.8637 90.9538 88.2482C91.5833 87.0033 92.233 85.7094 92.8965 84.3787C92.9544 84.2622 93.0121 84.1456 93.0735 84.0293C102.164 65.9088 114.225 41.8769 115.382 39.5775C116.239 37.8605 117.797 37.1247 119.328 37.1247C122.128 37.1247 124.854 39.5836 123.149 42.9931C122.237 44.8144 111.656 65.8966 108.706 71.7774Z" fill="#D9D9D9"/>
</svg>
