<svg width="439" height="579" viewBox="0 0 439 579" fill="none" xmlns="http://www.w3.org/2000/svg">
<path d="M110.429 487C86.4436 487 67 467.351 67 443.111V92H262.429L371 201.722V443.111C371 467.351 351.557 487 327.571 487H110.429Z" stroke="black" stroke-width="20" stroke-linecap="round" stroke-linejoin="round"/>
<path d="M241.714 92V223.667H372" stroke="black" stroke-width="20" stroke-linejoin="round"/>
<path d="M154.64 285.023H284.926" stroke="black" stroke-width="20" stroke-linecap="round" stroke-linejoin="round"/>
<path d="M154.64 340.741H284.926" stroke="black" stroke-width="20" stroke-linecap="round" stroke-linejoin="round"/>
<g clip-path="url(#clip0_22_18)">
<path d="M280.939 382.234C278.7 382.234 276.876 383.733 276.876 385.577V394.766H194.488H187.573L186.486 394.417C187.077 394.054 187.554 393.567 187.841 392.971C188.24 392.14 188.221 391.233 187.788 390.414C187.357 389.594 186.562 388.964 185.554 388.636L169.494 383.42C169.015 383.265 168.515 383.187 168.003 383.187C166.324 383.187 164.84 384.018 164.222 385.304C163.951 385.871 163.96 386.461 164.064 387.023L163.126 386.693V385.577C163.126 383.733 161.303 382.234 159.063 382.234C156.823 382.234 155 383.733 155 385.577V403.167C155 405.011 156.7 406.47 158.941 406.47H166.172V409.019C166.172 409.481 166.507 409.814 167.067 409.814H272.713C273.275 409.814 273.828 409.481 273.828 409.019V406.47H280.816C283.056 406.47 285 405.011 285 403.167V385.577C285.001 383.733 283.178 382.234 280.939 382.234Z" fill="black"/>
<path d="M262.507 437.424C261.119 437.424 259.824 437.723 258.682 438.23C258.537 438.142 258.388 438.059 258.223 437.991L226.599 424.878L262.941 409.813H249.381L219.82 422.052L190.257 409.814H176.697L213.039 424.879L181.263 438.044C181.151 438.09 181.053 438.157 180.95 438.212C179.815 437.713 178.528 437.422 177.153 437.422C172.674 437.422 169.03 440.423 169.03 444.11C169.03 447.796 172.674 450.766 177.153 450.766C180.537 450.766 183.442 449.103 184.661 446.595H255C256.219 449.103 259.124 450.766 262.508 450.766C266.987 450.766 270.631 447.782 270.631 444.096C270.63 440.409 266.986 437.424 262.507 437.424ZM186.167 441.58L219.82 427.649L253.47 441.58H186.167Z" fill="black"/>
</g>
<defs>
<clipPath id="clip0_22_18">
<rect width="130" height="107" fill="white" transform="translate(155 363)"/>
</clipPath>
</defs>
</svg>
