<svg width="128" height="128" viewBox="0 0 128 128" xmlns="http://www.w3.org/2000/svg">
<path fill-rule="evenodd" d="M9.51982 128C4.27057 128 0 124.995 0 121.3V11.1344C0 7.44076 4.27057 4.43422 9.51982 4.43422H39.9303V2.97753C39.9303 1.33302 41.8247 0 44.1618 0H83.8295C86.1644 0 88.0589 1.33302 88.0589 2.97753V4.43575H93.7899L118.478 4.43422C123.729 4.43422 128 7.44076 128 11.1344V121.3C128 124.995 123.729 128 118.478 128H9.51982ZM15.5766 11.878C12.8152 11.878 10.5766 14.1166 10.5766 16.878V115.556C10.5766 118.318 12.8152 120.556 15.5766 120.556H112.415C115.176 120.556 117.415 118.318 117.415 115.556V16.878C117.415 14.1166 115.176 11.878 112.415 11.878H88.0632V12.7682C88.0632 14.4112 86.1688 15.7458 83.8295 15.7458H44.164C41.8269 15.7458 39.9325 14.4128 39.9325 12.7682V11.878H15.5766Z"/>
<path d="M99 70H54C52.8954 70 52 70.8954 52 72V79C52 80.1046 52.8954 81 54 81H99C100.105 81 101 80.1046 101 79V72C101 70.8954 100.105 70 99 70Z"/>
<path d="M99 92H54C52.8954 92 52 92.8954 52 94V100C52 101.105 52.8954 102 54 102H99C100.105 102 101 101.105 101 100V94C101 92.8954 100.105 92 99 92Z"/>
<path d="M85.3325 27.2756C85.2426 27.1396 85.0411 27.0395 84.797 27.0092C84.5533 26.9794 84.2993 27.023 84.1227 27.1261L68.5836 36.2026L44.0097 50.5563C42.6633 51.3429 42.6634 52.6226 44.0098 53.4091C44.6622 53.7902 45.5294 54 46.4519 54C47.3743 54 48.2416 53.7902 48.894 53.4092L73.4678 39.0555C73.7337 38.9001 73.7535 38.6558 73.5284 38.4867L75.2494 37.4814L76.0622 37.9392C76.3517 38.1023 76.8113 38.0999 77.0958 37.9337L81.5379 35.3391C85.4745 33.0398 86.9994 29.7993 85.3325 27.2756ZM80.4946 34.7298L76.5648 37.0253L75.752 36.5675C75.4626 36.4044 75.0029 36.4068 74.7184 36.573L72.4896 37.8748L70.1484 36.5073L81.5372 29.855C81.3277 31.1134 80.1939 32.4683 78.4085 33.5112L76.0527 34.8872C75.7645 35.0554 75.7645 35.3282 76.0526 35.4964C76.1967 35.5806 76.3854 35.6226 76.5743 35.6226C76.763 35.6226 76.9518 35.5806 77.0958 35.4965L79.4518 34.1204C81.953 32.6594 83.2939 30.7153 83.0124 28.9933L84.2994 28.2416C85.1286 30.3421 83.6854 32.8662 80.4946 34.7298Z"/>
<path fill-rule="evenodd" d="M22 84H43V68H22V84ZM36 78.6666H29V73.3333H36V78.6666Z"/>
<path fill-rule="evenodd" d="M22 105H43V89H22V105ZM36 99.6666H29V94.3333H36V99.6666Z"/>
</svg>
