<svg width="128" height="128" viewBox="0 0 128 128" xmlns="http://www.w3.org/2000/svg">
<path d="M25.0362 106.583C24.7503 106.583 20.5453 111.501 18.7525 114.322C16.3064 118.161 15.2789 122.527 18.7525 125.654C22.2193 128.782 27.8466 128.782 31.3202 125.654C34.7906 122.527 33.831 118.124 31.3202 114.322C29.8742 112.139 25.3186 106.583 25.0362 106.583Z"/>
<path d="M127.085 44.5937C128.439 41.9016 128.283 39.0624 126.663 36.7997C125.081 34.5982 122.274 33.2307 119.328 33.2307C115.878 33.2307 112.932 35.0028 111.442 37.9771C110.727 39.3936 105.838 49.1375 100.058 60.6599L88.9597 82.7785C88.8916 82.9135 88.8202 83.0544 88.7487 83.1955C88.6908 83.3181 88.6262 83.4408 88.565 83.5634C88.2384 83.502 87.9118 83.4408 87.5851 83.3856C86.4148 83.1833 85.241 82.9993 84.0741 82.846C81.2877 82.4842 78.5115 82.2695 75.8135 82.2695C70.8938 82.2695 65.7362 82.9808 60.6533 84.0234C53.0289 85.5871 45.5543 87.9112 39.4644 89.8245C36.4195 90.7811 33.7147 91.6335 31.5543 92.2283C30.4791 92.5287 29.5367 92.7679 28.7849 92.9211C28.4073 92.9947 28.0772 93.0499 27.8085 93.0867C27.5398 93.1174 27.3391 93.1297 27.2232 93.1297H24.628V100.82H27.2239C27.377 100.82 27.6901 100.844 28.0983 100.905C28.8707 101.028 29.9763 101.286 31.2895 101.641C33.5963 102.279 36.5697 103.217 39.9412 104.278C44.9969 105.86 50.9643 107.7 57.1529 109.153C63.3483 110.607 69.7614 111.68 75.8139 111.68C77.6375 111.68 79.502 111.582 81.3833 111.404C85.3298 111.03 89.3512 110.312 93.2943 109.423C96.8938 108.614 100.422 107.663 103.77 106.688C107.107 105.713 110.261 104.726 113.081 103.837C115.902 102.954 118.396 102.169 120.389 101.629C121.383 101.359 122.257 101.145 122.951 101.01C123.302 100.942 123.608 100.887 123.853 100.863C124.101 100.826 124.292 100.82 124.401 100.82H126.997V93.1299H124.401C124.258 93.1299 123.986 93.1115 123.622 93.0563C122.992 92.9704 122.104 92.7742 121.053 92.4983C119.471 92.0874 117.508 91.4926 115.283 90.7997C114.171 90.4563 112.986 90.0823 111.751 89.6959C111.826 89.5427 111.908 89.3955 111.979 89.2483C115.474 82.1596 114.058 77.1128 113.197 74.0528C113.092 73.6788 112.959 73.2065 112.891 72.8876L119.318 60.0837C122.911 52.921 126.568 45.6361 127.085 44.5937ZM108.706 71.7774C107.543 74.0954 112.503 78.9212 107.873 87.9785C107.808 88.1012 107.737 88.2362 107.669 88.3649C107.658 88.3834 107.648 88.4018 107.638 88.42C107.515 88.3832 107.4 88.3465 107.277 88.3096C107.202 88.4383 107.134 88.5733 107.063 88.7081C106.434 89.8916 105.644 91.1364 104.664 92.4549C104.756 92.4855 104.845 92.51 104.933 92.5346C104.402 93.2274 103.821 93.9388 103.181 94.6625C99.789 98.5319 96.8188 101.543 94.3013 103.787C94.0903 103.977 93.8863 104.155 93.6856 104.333C89.9363 105.173 86.1396 105.854 82.4652 106.197C82.4617 106.086 82.4617 105.97 82.4687 105.86C82.4994 105.357 82.649 104.811 82.9349 104.235C83.3569 103.395 86.633 96.8637 90.9538 88.2482C91.5833 87.0033 92.233 85.7094 92.8965 84.3787C92.9544 84.2622 93.0121 84.1456 93.0735 84.0293C102.164 65.9088 114.225 41.8769 115.382 39.5775C116.239 37.8605 117.797 37.1247 119.328 37.1247C122.128 37.1247 124.854 39.5836 123.149 42.9931C122.237 44.8144 111.656 65.8966 108.706 71.7774Z"/>
<path fill-rule="evenodd" d="M46 4.47058C23.6169 4.47058 5.41176 19.5096 5.41176 38C5.41176 56.4904 23.6169 71.5294 46 71.5294C68.3831 71.5294 86.5882 56.4904 86.5882 38C86.5882 19.5096 68.3831 4.47058 46 4.47058ZM46 76C20.6351 76 0 58.9536 0 38C0 17.0464 20.6351 0 46 0C71.3649 0 92 17.0464 92 38C92 58.9536 71.3649 76 46 76ZM67.3544 51.7353C66.584 52.5849 65.3167 52.7632 64.3418 52.1592L44.7152 39.9992C43.8323 39.4522 43.2952 38.4875 43.2952 37.449V18.3548C43.2952 16.8603 44.5067 15.6489 46.0011 15.6489V15.6489C47.4955 15.6489 48.707 16.8603 48.707 18.3548V35.2134C48.707 36.2521 49.2443 37.2169 50.1273 37.7639L66.8451 48.118C68.1076 48.8999 68.3519 50.6352 67.3544 51.7353V51.7353Z" />
</svg>
