<svg width="128" height="128" viewBox="0 0 128 128" xmlns="http://www.w3.org/2000/svg">
<path d="M105.635 122.866H103.602C102.477 122.866 101.569 124.014 101.569 125.433C101.569 126.853 102.477 128 103.602 128H105.635C106.759 128 107.668 126.853 107.668 125.433C107.668 124.014 106.759 122.866 105.635 122.866Z"/>
<path d="M84.1577 122.866H80.2702C79.1458 122.866 78.2371 124.014 78.2371 125.433C78.2371 126.853 79.1458 128 80.2702 128H84.1577C85.282 128 86.1908 126.853 86.1908 125.433C86.1908 124.014 85.2818 122.866 84.1577 122.866Z"/>
<path d="M95.8245 122.866H91.935C90.8107 122.866 89.9019 124.014 89.9019 125.433C89.9019 126.853 90.8107 128 91.935 128H95.8245C96.9488 128 97.8575 126.853 97.8575 125.433C97.8575 124.014 96.9488 122.866 95.8245 122.866Z"/>
<path d="M59.8672 78.8928C60.6845 79.7143 61.3616 80.7154 61.8801 81.8602C62.2563 82.6892 62.9413 83.1564 63.6489 83.1564C63.9906 83.1564 64.3361 83.0487 64.6532 82.8201C65.6291 82.1168 65.9708 80.5484 65.4135 79.3191C64.6368 77.6018 63.6223 76.1081 62.4004 74.876C61.516 73.9931 60.2392 74.1778 59.5439 75.2842C58.8444 76.3953 58.9888 78.01 59.8672 78.8928Z"/>
<path d="M15.6644 121.092C14.8002 120.345 14.0664 119.413 13.4829 118.315C12.8546 117.139 11.592 116.818 10.6609 117.616C9.7276 118.407 9.48171 120.001 10.1079 121.177C10.9821 122.819 12.08 124.216 13.3692 125.327C13.7209 125.632 14.1195 125.776 14.516 125.776C15.1645 125.776 15.8031 125.386 16.1955 124.66C16.8295 123.489 16.5915 121.893 15.6644 121.092Z"/>
<path d="M25.8249 122.866H21.9353C20.8109 122.866 19.9022 124.014 19.9022 125.433C19.9022 126.853 20.8109 128 21.9353 128H25.8247C26.949 128 27.8578 126.853 27.8578 125.433C27.8578 124.014 26.9493 122.866 25.8249 122.866Z"/>
<path d="M10.2306 112.94C11.2003 112.94 12.0583 112.062 12.2313 110.815C12.4102 109.519 12.7824 108.292 13.3354 107.175C13.9291 105.974 13.6404 104.39 12.6868 103.638C11.7393 102.891 10.4808 103.258 9.8851 104.457C9.05546 106.138 8.49436 107.978 8.22607 109.932C8.03284 111.328 8.77288 112.658 9.87914 112.902C9.99684 112.927 10.1148 112.94 10.2306 112.94Z"/>
<path d="M47.9376 74.0969C47.9376 75.5163 48.8464 76.6636 49.9707 76.6636H53.8582C54.9826 76.6636 55.8913 75.5163 55.8913 74.0969C55.8913 72.6774 54.9826 71.5302 53.8582 71.5302H49.9707C48.8466 71.5302 47.9376 72.6774 47.9376 74.0969Z"/>
<path d="M35.2937 99.7652C35.2937 98.3457 34.385 97.1985 33.2606 97.1985H29.3731C28.2487 97.1985 27.34 98.3457 27.34 99.7652C27.34 101.185 28.2487 102.332 29.3731 102.332H33.2606C34.385 102.332 35.2937 101.185 35.2937 99.7652Z"/>
<path d="M38.3039 71.5302C37.1795 71.5302 36.2708 72.6774 36.2708 74.0969C36.2708 75.5163 37.1795 76.6636 38.3039 76.6636H42.1933C43.3177 76.6636 44.2264 75.5163 44.2264 74.0969C44.2264 72.6774 43.3177 71.5302 42.1933 71.5302H38.3039Z"/>
<path d="M21.5936 102.332C22.718 102.332 23.6267 101.185 23.6267 99.7652C23.6267 98.3457 22.718 97.1985 21.5936 97.1985H20.2374C19.2167 97.2012 18.2062 97.3603 17.2324 97.6707C16.1448 98.0173 15.486 99.4112 15.7604 100.787C15.9923 101.952 16.8198 102.725 17.7306 102.725C17.8953 102.725 18.064 102.702 18.2307 102.648C18.8793 102.44 19.5583 102.335 20.2414 102.332H21.5936Z"/>
<path d="M60.8239 122.866H56.9364C55.812 122.866 54.9033 124.014 54.9033 125.433C54.9033 126.853 55.812 128 56.9364 128H60.8239C61.9482 128 62.857 126.853 62.857 125.433C62.857 124.014 61.9482 122.866 60.8239 122.866Z"/>
<path d="M65.1641 87.5928C64.0764 87.2411 62.9704 88.0752 62.6937 89.4538C62.4376 90.7322 61.9944 91.9207 61.3802 92.9831C60.7174 94.1252 60.9146 95.7321 61.8215 96.5689C62.1834 96.9025 62.6023 97.0616 63.019 97.0616C63.6473 97.0616 64.2653 96.6997 64.6639 96.0091C65.587 94.4152 66.2517 92.6311 66.6382 90.7111C66.9105 89.3383 66.2539 87.9417 65.1641 87.5928Z"/>
<path d="M72.4906 122.866H68.601C67.4766 122.866 66.5679 124.014 66.5679 125.433C66.5679 126.853 67.4766 128 68.601 128H72.4904C73.6148 128 74.5235 126.853 74.5235 125.433C74.5235 124.014 73.615 122.866 72.4906 122.866Z"/>
<path d="M46.9607 99.7652C46.9607 98.3457 46.052 97.1985 44.9276 97.1985H41.0382C39.9139 97.1985 39.0051 98.3457 39.0051 99.7652C39.0051 101.185 39.9139 102.332 41.0382 102.332H44.9276C46.052 102.332 46.9607 101.185 46.9607 99.7652Z"/>
<path d="M37.4898 122.866H33.6023C32.4779 122.866 31.5692 124.014 31.5692 125.433C31.5692 126.853 32.4779 128 33.6023 128H37.4898C38.6141 128 39.5229 126.853 39.5229 125.433C39.5229 124.014 38.6141 122.866 37.4898 122.866Z"/>
<path d="M49.1568 122.866H45.2693C44.1449 122.866 43.2362 124.014 43.2362 125.433C43.2362 126.853 44.1449 128 45.2693 128H49.1568C50.2812 128 51.1899 126.853 51.1899 125.433C51.1899 124.014 50.2812 122.866 49.1568 122.866Z"/>
<path d="M58.588 99.1262C58.3907 97.7323 57.3559 96.8031 56.2335 97.0419C55.7617 97.1472 55.2819 97.1987 54.8063 97.1987H52.7041C51.5819 97.1987 50.671 98.3459 50.671 99.7654C50.671 101.185 51.5819 102.332 52.7041 102.332H54.8063C55.5158 102.332 56.2335 102.255 56.9371 102.098C58.0412 101.852 58.7812 100.522 58.588 99.1262Z"/>
<path d="M28.3743 71.5302C27.25 71.5302 26.3412 72.6774 26.3412 74.0969C26.3412 75.5163 27.25 76.6636 28.3743 76.6636H30.4074C31.5318 76.6636 32.4405 75.5163 32.4405 74.0969C32.4405 72.6774 31.5318 71.5302 30.4074 71.5302H28.3743Z"/>
<path d="M105.635 45.8622C101.15 45.8622 97.5023 50.4671 97.5023 56.1293C97.5023 61.7916 101.15 66.3965 105.635 66.3965C110.12 66.3965 113.768 61.7916 113.768 56.1293C113.768 50.4671 110.12 45.8622 105.635 45.8622Z"/>
<path d="M105.635 27.8943C91.6344 27.8943 83.2699 43.3902 83.2699 58.3727C83.2699 67.7032 85.1586 72.8444 88.2858 81.3612C94.4728 98.2122 103.833 116.537 103.927 116.719C104.303 117.453 104.946 117.892 105.635 117.892C106.324 117.892 106.967 117.453 107.343 116.719C107.436 116.537 116.797 98.2125 122.984 81.3612C126.111 72.8444 128 67.7032 128 58.3727C128 43.3902 119.636 27.8943 105.635 27.8943ZM105.635 71.5302C98.9071 71.5302 93.4359 64.623 93.4359 56.1293C93.4359 47.6357 98.9071 40.7285 105.635 40.7285C112.363 40.7285 117.834 47.6357 117.834 56.1293C117.834 64.623 112.363 71.5302 105.635 71.5302Z"/>
<path d="M69.8978 0.704378C69.7495 0.356818 69.4167 0.100898 69.0136 0.0235421C68.6113 -0.0527353 68.1918 0.058716 67.9002 0.322183L42.2427 23.5177L1.66722 60.1995C-0.555866 62.2096 -0.555717 65.4801 1.66737 67.4899C2.74455 68.4638 4.17637 69 5.69958 69C7.22263 69 8.65475 68.4639 9.73193 67.4902L50.3073 30.8085C50.7464 30.4113 50.7791 29.7871 50.4073 29.355L53.249 26.7859L54.5911 27.9558C55.069 28.3725 55.8279 28.3664 56.2978 27.9417L63.6324 21.311C70.1323 15.4349 72.6502 7.15373 69.8978 0.704378ZM61.9097 19.7539L55.421 25.6201L54.0789 24.4502C53.6011 24.0334 52.842 24.0396 52.3722 24.4642L48.6921 27.7912L44.8264 24.2965L63.6312 7.29617C63.2853 10.5121 61.4131 13.9745 58.4653 16.6397L54.5754 20.1561C54.0996 20.5861 54.0996 21.2832 54.5753 21.7131C54.8132 21.9282 55.1248 22.0356 55.4366 22.0356C55.7482 22.0356 56.06 21.9282 56.2978 21.7133L60.1878 18.1967C64.3178 14.4629 66.5318 9.49474 66.067 5.09397L68.192 3.17288C69.5612 8.54087 67.1781 14.9913 61.9097 19.7539Z"/>
</svg>
