<svg width="128" height="128" viewBox="0 0 128 128" xmlns="http://www.w3.org/2000/svg">
<path d="M85.4628 39.2055C85.5319 38.9768 85.8325 38.8853 85.8325 38.6529C85.8325 38.307 85.3697 38.1698 85.3697 37.8239C85.3697 37.6537 85.5851 37.5952 85.6782 37.4415C85.8485 37.1651 85.6862 36.9364 85.8937 36.6765C86.1011 36.4167 86.3884 36.294 86.3884 35.9976C86.3884 35.8494 86.2634 35.7634 86.2634 35.6151C86.2634 35.3608 86.7049 35.3333 87.0666 35.2748C87.4682 35.2052 87.7315 35.0204 88.1465 34.9984C88.2475 35.046 88.3406 35.0625 88.4709 35.0625C88.7635 35.0625 89.08 35.0954 89.197 34.9143C89.3061 34.7495 89.3832 34.6379 89.5668 34.5098C89.7981 34.3506 90.0535 34.3945 90.3381 34.2774C90.5695 34.1804 90.4631 33.948 90.7104 33.873C90.8886 33.8199 91.011 33.8895 91.2025 33.873V33.7248C91.1945 33.6918 91.1413 33.6772 91.1413 33.6387C91.1413 33.4114 91.401 33.2996 91.6788 33.18L91.6972 33.1721C92.1307 32.9873 92.4526 32.9708 92.9632 32.8958C93.3808 32.8317 93.5111 32.6249 93.8888 32.4932C94.1442 32.4017 94.3596 32.4127 94.5378 32.2589C94.7373 32.0833 94.7692 31.8344 95.0937 31.8344C95.216 31.8344 95.2772 31.8765 95.4022 31.8765C95.6709 31.8765 95.6948 31.6532 95.865 31.516C96.0033 31.3988 96.1815 31.3879 96.389 31.3458C96.9209 31.2341 97.2241 31.1115 97.7774 31.1115C98.1497 31.1115 98.304 31.3238 98.6737 31.3238C98.937 31.3238 99.0434 31.1921 99.2908 31.1335C99.5913 31.0639 99.8174 31.1225 100.126 31.0694C100.581 30.9889 100.764 30.751 101.235 30.751C101.445 30.751 101.552 30.8151 101.762 30.8151C101.855 30.8151 101.916 30.7712 102.006 30.7712C102.086 30.7712 102.115 30.8151 102.193 30.8151C102.578 30.8151 102.331 30.2405 102.719 30.2405C102.895 30.2405 102.903 30.3942 103.057 30.4527C103.365 30.5699 103.597 30.5589 103.953 30.5589C104.161 30.5589 104.206 30.3686 104.416 30.3686C104.586 30.3686 104.522 30.6028 104.693 30.6028C104.855 30.6028 104.948 30.5808 105.094 30.5387C105.203 30.5058 105.187 30.3686 105.31 30.3686C105.496 30.3686 105.528 30.5387 105.711 30.5387C106.174 30.5387 106.214 30.1673 106.515 29.922C106.807 29.6841 107.172 29.6347 107.347 29.3493C107.509 29.0839 107.565 28.7545 107.98 28.7545C108.243 28.7545 108.289 28.9869 108.552 28.9869C108.9 28.9869 109.007 28.76 109.262 28.6045C109.432 28.8131 109.454 29.0931 109.802 29.0931C110.135 29.0931 110.326 29.0894 110.651 29.051C110.983 29.0089 111.023 28.7124 111.361 28.7124C111.478 28.7124 111.531 28.7856 111.648 28.7856H112.749C112.749 29.104 112.472 29.3913 112.813 29.6036C112.967 29.6988 113.129 29.6677 113.305 29.7317C113.523 29.8104 113.491 30.0501 113.738 30.0501C114.079 30.0501 114.262 29.7939 114.262 29.5615C114.579 29.5817 114.773 29.5615 115.066 29.6457C115.297 29.7152 115.22 29.9019 115.281 30.0703L115.406 30.0922C115.821 29.8799 115.813 29.6128 116.297 29.4792C116.233 29.4133 116.167 29.3419 116.084 29.2632C115.712 28.9082 115.39 28.7637 114.88 28.4983C114.379 28.2385 114.132 28.0536 113.738 27.7132C113.491 27.501 113.576 27.3033 113.43 27.0545C113.292 26.8202 112.996 26.6939 112.627 26.6939C112.55 26.6939 112.518 26.736 112.441 26.736C112.241 26.736 112.148 26.6299 111.948 26.6299C111.592 26.6299 111.43 26.8202 111.076 26.8202C110.659 26.8202 110.427 26.8166 110.01 26.8166C109.802 26.8166 109.778 26.6079 109.571 26.6079C109.507 26.5476 109.419 26.489 109.323 26.4396C109.103 26.3227 108.904 26.3023 108.625 26.2737L108.584 26.2694L115.374 18.8763C115.294 18.7335 115.236 18.6329 115.138 18.5066C115.108 18.4956 115.076 18.4883 115.036 18.4883C114.914 18.4883 114.864 18.5798 114.739 18.5798C114.656 18.5798 114.608 18.5487 114.539 18.5212C114.406 18.4718 114.337 18.4224 114.209 18.362C114.042 18.2852 113.925 18.2596 113.744 18.2028C113.542 18.1388 113.363 18.1388 113.23 18.0198C113.143 17.943 113.116 17.8826 113.063 17.7911C113.031 17.7344 113.023 17.6557 112.93 17.6557C112.768 17.6557 112.693 17.7453 112.534 17.7453C112.417 17.7453 112.268 17.7234 112.268 17.6429C112.268 17.544 112.334 17.4928 112.334 17.3921C112.334 17.3647 112.339 17.3244 112.3 17.3244C111.988 17.3153 111.81 17.2897 111.504 17.2549C111.395 17.2439 111.329 17.2421 111.222 17.222L111.206 17.2187C110.992 17.1767 110.854 17.1496 110.69 17.039C110.587 16.9676 110.592 16.8834 110.494 16.8102C110.43 16.7645 110.355 16.7425 110.26 16.7425C110.052 16.7425 109.956 16.856 109.863 16.9822C109.813 17.0463 109.775 17.1305 109.664 17.1305C109.581 17.1305 109.539 17.0865 109.496 17.039C109.44 16.9694 109.416 16.9273 109.363 16.856C109.275 16.7297 109.222 16.6565 109.116 16.5357C109.068 16.4826 109.017 16.4534 108.967 16.4003C108.831 16.2557 108.701 16.1935 108.486 16.1148C108.411 16.0874 108.363 16.0563 108.286 16.0343L108.245 16.023C108.077 15.9766 107.964 15.9454 107.821 15.8623C107.661 15.7689 107.573 15.6957 107.39 15.6225C107.19 15.5439 107.063 15.5036 106.86 15.4286C106.69 15.3663 106.589 15.3041 106.395 15.3041C106.187 15.3041 106.073 15.3389 105.866 15.3389H105.533C105.445 15.3389 105.451 15.209 105.368 15.2236C105.344 15.2273 105.312 15.2218 105.302 15.2346C105.267 15.2767 105.265 15.3261 105.246 15.3718C105.193 15.5109 105.358 15.6171 105.246 15.7378C105.187 15.8037 105.073 15.7232 104.969 15.7031C104.858 15.6829 104.791 15.6463 104.671 15.6463C104.472 15.6463 104.339 15.6628 104.171 15.7378C104.052 15.7909 104.052 15.8769 103.991 15.9666C103.961 16.005 103.916 16.0233 103.874 16.0562C103.791 16.1221 103.703 16.1404 103.608 16.1935C103.56 16.2228 103.57 16.2704 103.509 16.285C103.464 16.296 103.427 16.2941 103.376 16.296C103.31 16.2996 103.262 16.285 103.195 16.285C103.054 16.285 102.975 16.274 102.834 16.274C102.693 16.274 102.639 16.3765 102.498 16.3765C102.389 16.3765 102.339 16.3289 102.232 16.3198C102.091 16.3069 101.988 16.3454 101.884 16.4113C101.839 16.4387 101.831 16.4899 101.767 16.4899C101.589 16.4899 101.573 16.3399 101.552 16.2173C101.544 16.1605 101.501 16.1313 101.469 16.08C101.403 15.9776 101.389 15.9062 101.32 15.8055C101.283 15.7525 101.254 15.7031 101.171 15.6811C101.142 15.6719 101.137 15.6463 101.105 15.6463C100.996 15.6463 100.956 15.7214 100.905 15.7836C100.852 15.8513 100.884 15.9464 100.772 15.9666C100.751 15.9702 100.727 15.9739 100.706 15.9776C100.549 16.005 100.456 15.8806 100.424 15.7726C100.405 15.7031 100.44 15.6555 100.408 15.5896C100.379 15.5338 100.335 15.4993 100.278 15.4547L100.275 15.4523C100.254 15.4359 100.243 15.4121 100.208 15.4066C100.134 15.3956 100.083 15.3974 100.009 15.3846C99.8467 15.3535 99.7536 15.3297 99.6126 15.2693C99.5089 15.2273 99.453 15.1833 99.3466 15.1449C99.1472 15.0699 99.0062 15.0296 98.7775 15.0296C98.5301 15.0296 98.1444 15.2071 98.1444 15.0351C98.1444 14.9656 98.1843 14.8887 98.1444 14.8247C98.1258 14.7954 98.0513 14.8247 98.0061 14.8247C97.8439 14.8247 97.7295 14.8356 97.6045 14.9052C97.5008 14.9619 97.4875 15.0278 97.3891 15.0863C97.1656 15.2218 96.8864 15.198 96.7587 15.3846C96.7161 15.4469 96.7374 15.4981 96.7082 15.5658C96.6629 15.6756 96.6337 15.7378 96.5592 15.8403C96.4236 16.0288 96.1363 16.0453 95.8304 16.0453C95.6895 16.0453 95.6017 16.0471 95.4634 16.0343C95.4182 16.0306 95.381 16.0105 95.3331 16.0105C95.0378 16.0105 94.8543 16.0361 94.6017 16.1368L94.5932 16.1401C94.52 16.1696 94.4611 16.1934 94.4022 16.2392C94.2461 16.3663 94.123 16.4304 93.9334 16.5291L93.9208 16.5357C93.7878 16.6071 93.7106 16.6839 93.5404 16.6839C93.3755 16.6839 93.309 16.5814 93.1414 16.5814C92.9021 16.5814 92.7744 16.64 92.5457 16.6839C92.3462 16.7242 92.2504 16.8047 92.0962 16.9017C92.0244 16.9474 91.9685 16.9932 91.8648 16.9932C91.7371 16.9932 91.6866 16.9163 91.5988 16.8559C91.5084 16.7937 91.4419 16.7589 91.3514 16.6967C91.3142 16.6711 91.2929 16.6382 91.2504 16.6162C91.1892 16.5814 91.1307 16.5759 91.0536 16.5595C90.9206 16.5302 90.8408 16.5192 90.7051 16.5027L90.6711 16.4982C90.4332 16.4661 90.2816 16.4457 90.0402 16.4003C89.9365 16.3801 89.862 16.3655 89.7742 16.3197C89.6705 16.263 89.6625 16.188 89.5588 16.1367C89.5083 16.1111 89.4604 16.1148 89.3939 16.1148C89.1944 16.1148 89.0588 16.1916 88.963 16.3088C88.9018 16.382 88.8513 16.4314 88.7635 16.4899C88.7024 16.5338 88.6598 16.565 88.6146 16.6162C88.58 16.6528 88.5641 16.7077 88.4975 16.7077C88.4311 16.7077 88.4071 16.6729 88.3646 16.64C88.2981 16.5851 88.2422 16.554 88.1677 16.5027C88.0374 16.4131 87.8832 16.4332 87.7023 16.4332C87.4709 16.4332 87.3113 16.4204 87.0879 16.457C86.9815 16.4735 86.9256 16.4991 86.8219 16.5247C86.7235 16.5503 86.657 16.5576 86.5586 16.5814C86.4283 16.6144 86.3618 16.6619 86.2261 16.6619C86.0639 16.6619 85.9602 16.6308 85.8272 16.5704C85.6995 16.5137 85.6995 16.4222 85.5958 16.3417C85.5399 16.2996 85.4707 16.2905 85.3963 16.263C85.3621 16.2498 85.3312 16.2392 85.3004 16.2287C85.1777 16.1871 85.0733 16.1616 84.9308 16.1148C84.7632 16.0563 84.6808 16.005 84.5345 15.9208C84.4946 15.8971 84.46 15.8623 84.4015 15.8623C84.3723 15.8623 84.359 15.8824 84.335 15.8861C84.3058 15.8897 84.2685 15.8916 84.2526 15.908C84.2074 15.952 84.202 16.0233 84.1196 16.0233C83.9999 16.0233 83.9414 15.9629 83.8536 15.908C83.6967 15.8092 83.6541 15.6994 83.6036 15.5548C83.569 15.4487 83.5876 15.381 83.5397 15.2804C83.5147 15.2355 83.4635 15.2166 83.3998 15.1932L83.3882 15.1889C83.2738 15.1468 83.1727 15.0955 83.1727 15.0022C83.1727 14.9729 83.1647 14.9473 83.1913 14.9272C83.2392 14.8869 83.3163 14.8997 83.3882 14.8814C83.561 14.8393 83.6222 14.768 83.7711 14.6984C83.93 14.6268 83.997 14.5534 84.0971 14.4439L84.1036 14.4367C84.1887 14.3397 84.2685 14.2794 84.2685 14.1622C84.2685 14.0707 84.2765 14.0085 84.202 13.9335C84.1143 13.8493 84.0185 13.82 83.9201 13.7413C83.9041 13.7267 83.9041 13.7084 83.8882 13.6956C83.7286 13.5583 83.6142 13.4833 83.4892 13.3296C83.428 13.2527 83.3403 13.2271 83.2897 13.1466C83.2365 13.0606 83.2498 12.9984 83.2232 12.9069C83.1887 12.7824 83.1355 12.7129 83.1062 12.5884C83.0796 12.4658 83.0796 12.3945 83.0743 12.2682C83.0716 12.1712 83.0158 12.0632 82.8748 12.0632C82.6514 12.0632 82.5344 12.1309 82.3109 12.1309C82.2205 12.1309 82.17 12.0962 82.0796 12.0962C81.896 12.0962 81.8295 12.2334 81.6487 12.2334C81.5077 12.2334 81.4492 12.1657 81.3481 12.0962C81.2657 12.0394 81.1912 12.0193 81.0848 11.9827C80.8348 11.8967 80.7736 11.7686 80.5529 11.6515C80.4119 11.5783 80.2709 11.5929 80.0874 11.5838C80.0395 11.582 79.9916 11.6003 79.9571 11.5838C79.9145 11.5637 79.9225 11.527 79.9065 11.4923C79.8826 11.4429 79.8666 11.4099 79.856 11.355C79.84 11.2635 79.7895 11.2178 79.7895 11.1263C79.7895 11.0293 79.8613 10.9854 79.9225 10.8994C79.9863 10.8115 80.0182 10.7475 80.106 10.6706C80.1619 10.6194 80.255 10.6249 80.3055 10.5681C80.3695 10.4942 80.3694 10.4355 80.3693 10.3496V10.3394C80.3693 10.1692 80.2843 10.0649 80.138 9.92948C80.0848 9.87824 80.0103 9.86726 79.9385 9.82517C79.7682 9.72635 79.6911 9.64034 79.4916 9.56348C79.3853 9.52322 79.3054 9.50309 79.2256 9.43721C79.2044 9.42074 79.1751 9.4244 79.1592 9.40427C79.1485 9.38963 79.1618 9.37316 79.1592 9.35852C79.1512 9.32192 79.1272 9.30179 79.1272 9.26336C79.1272 9.14075 79.1538 9.06755 79.1272 8.94678C79.1139 8.8937 79.0714 8.86442 79.0607 8.80953C79.0474 8.75829 79.074 8.72352 79.0607 8.67411C79.0235 8.54418 78.9145 8.4417 78.7283 8.42158C78.4703 8.39413 78.3187 8.37582 78.066 8.34289C77.9277 8.32458 77.824 8.3191 77.7335 8.25139C77.6989 8.22577 77.7149 8.18551 77.683 8.1599C77.6165 8.10683 77.5261 8.10317 77.417 8.10317C77.3612 8.10317 77.3346 8.14526 77.2867 8.1599C77.1537 8.19833 77.0659 8.21662 76.9196 8.21662C76.8532 8.21662 76.8159 8.19466 76.7547 8.18186C76.6803 8.16904 76.6297 8.17453 76.5553 8.1599C76.393 8.12696 76.3691 8.02814 76.2574 7.94213C76.1377 7.85246 76.026 7.81952 75.9249 7.71522C75.8345 7.61822 75.776 7.51026 75.6057 7.51026H75.2812C75.1217 7.51026 75.0099 7.50294 74.8796 7.44071C74.8557 7.42974 74.8557 7.40778 74.8318 7.39497C74.6562 7.3053 74.5471 7.25406 74.3982 7.14426C74.3822 7.13145 74.3503 7.1351 74.3317 7.12046C74.2333 7.03629 74.2253 6.94662 74.0843 6.89354C73.97 6.84962 73.8822 6.86426 73.7519 6.8478C73.7279 6.84414 73.7093 6.82767 73.6854 6.82401C73.5604 6.80754 73.4832 6.80754 73.3529 6.80205C73.188 6.7929 73.1056 6.74349 72.9566 6.69957C72.8768 6.67578 72.821 6.67029 72.7571 6.63003C72.7172 6.60441 72.7013 6.56964 72.6747 6.53854C72.6135 6.46716 72.555 6.4269 72.4912 6.35737C72.3635 6.2128 72.3209 6.11398 72.1427 5.99137C71.9778 5.87791 71.797 5.87242 71.6454 5.75164C71.5549 5.68027 71.6746 5.57779 71.7943 5.5357C71.8874 5.50094 72.0443 5.57047 72.0603 5.50094C72.1055 5.29232 71.7464 5.26121 71.5283 5.11298C71.4219 5.03795 71.3554 4.98488 71.3129 4.88423C71.273 4.78542 71.2996 4.71404 71.265 4.61157C71.1852 4.3883 71.0842 4.27119 70.9485 4.06258C70.9139 4.0095 70.8661 3.98022 70.8342 3.92533C70.773 3.82834 70.7756 3.75514 70.7331 3.65266C70.6586 3.46966 70.6267 3.30862 70.3847 3.21896C70.2623 3.17138 70.1825 3.14758 70.0548 3.10367C69.9777 3.07988 69.9112 3.07622 69.8554 3.03596C69.7969 2.9957 69.7995 2.94812 69.7543 2.89871C69.6479 2.78159 69.4936 2.76695 69.3075 2.71571C69.2037 2.68826 69.1452 2.65715 69.0415 2.62422C68.9138 2.58579 68.8127 2.57114 68.7436 2.4888C68.701 2.43756 68.6611 2.40279 68.6106 2.35155C68.568 2.30763 68.5388 2.26006 68.4617 2.26006C68.1611 2.26006 68.3499 2.2875 68.0308 2.37351C67.8313 2.42658 67.7808 2.22529 67.6318 2.1228C67.544 2.06241 67.4775 2.02764 67.3658 1.99653C67.2914 1.9764 67.2382 1.97457 67.1664 1.95078C67.1132 1.93431 67.052 1.91418 67.052 1.8721C67.052 1.80256 67.1185 1.76962 67.1664 1.71106C67.1876 1.68727 67.2329 1.67446 67.2329 1.64335C67.2329 1.58113 67.1584 1.55186 67.0999 1.5061C67.06 1.47499 67.0493 1.44206 67.0014 1.41461C66.8764 1.3469 66.7568 1.33592 66.669 1.24442C66.6238 1.19501 66.6238 1.15475 66.5706 1.10717C66.5573 1.09618 66.52 1.09985 66.5041 1.10717C66.4775 1.11815 66.4775 1.1401 66.4536 1.15291C66.3791 1.18951 66.3206 1.2133 66.2727 1.26638C66.2461 1.29566 66.2328 1.33226 66.1876 1.3469C66.0971 1.37801 66.0227 1.35605 65.9243 1.36886C65.8232 1.3835 65.762 1.4146 65.6583 1.4146C65.4295 1.4146 65.2966 1.34323 65.1263 1.24441C65.0066 1.17304 64.9295 1.13278 64.8444 1.03762C64.7221 0.898544 64.621 0.80888 64.4135 0.730184C64.2699 0.675288 64.1582 0.667968 64.0332 0.592936C64.0119 0.581952 63.98 0.583784 63.9667 0.570976C63.9428 0.545352 63.9454 0.510584 63.9321 0.47948C63.9002 0.404448 63.8576 0.36236 63.7991 0.29648C63.7752 0.265368 63.7619 0.228768 63.7167 0.204984C63.6342 0.162896 63.5518 0.177536 63.4507 0.15924C63.3523 0.142768 63.2858 0.153744 63.1874 0.13728C63.0464 0.113488 62.9906 0.047616 62.8549 0.021992C62.73 0 62.6528 0 62.5199 0H62.3895C62.2246 0 62.3416 0.177504 62.2911 0.285472C62.2592 0.356848 62.2273 0.402592 62.1741 0.468472C62.1528 0.494088 62.1369 0.5252 62.0916 0.5252C61.9586 0.686232 61.7671 0.803352 61.5411 0.880216C61.3177 0.95708 61.0596 0.991848 60.7884 0.991848H60.0569L58.6978 0.567296C58.6127 0.572784 58.5675 0.583768 58.4824 0.587424C58.4744 0.684416 58.4504 0.742976 58.4504 0.838136C58.4504 1.0559 58.8281 1.07786 59.1313 1.14009C59.392 1.19316 59.5303 1.27917 59.7165 1.41642C60.1022 1.70372 60.2272 1.94162 60.3335 2.32958C60.3734 2.46866 60.3734 2.58029 60.4878 2.69191C60.6979 2.88223 61.0437 2.82916 61.2591 3.01033C61.3522 3.08902 61.3363 3.18051 61.4134 3.2647C61.5624 3.41842 61.8549 3.36534 62.0331 3.49894C62.1635 3.59958 62.1236 3.71122 62.1236 3.84846C62.1236 4.02414 62.0464 4.16688 61.8469 4.26387V4.68294C61.8469 4.79457 62.0172 4.8147 62.0624 4.92084C62.2007 5.2301 62.1236 5.4314 62.2167 5.74982C62.2938 6.03713 62.464 6.286 62.4959 6.5788C62.1103 6.5788 61.8922 6.59893 61.5065 6.59893C61.1049 6.59893 60.8203 6.49096 60.5623 6.33724L59.0383 10.2314L53.7906 14.4166L47.9551 17.6447L42.6008 18.9437L36.2257 20.4904C35.6006 20.7411 35.1591 20.8253 34.683 21.1931C34.3798 21.4255 34.2814 21.6433 33.8798 21.808C33.7175 22.0367 33.4941 22.1154 33.2308 22.2966C32.9223 22.5088 32.8451 22.679 32.5818 22.9133C32.3983 23.0835 31.9648 23.0395 31.9648 23.2518C31.9648 23.3964 31.9807 23.5025 32.119 23.6142C32.2573 23.7258 32.4887 23.7624 32.4887 23.9106C32.4887 24.1705 32.0047 24.2089 31.627 24.2089C31.2945 24.2089 31.3238 23.9161 31.2254 23.6983C30.994 23.9106 30.9621 24.0698 30.8238 24.315C30.4062 25.0214 30.1987 25.4185 29.7731 26.1212C29.5816 26.4396 29.4806 26.6611 29.1242 26.9063C28.4938 27.3418 28.6241 27.814 28.3848 28.4142C28.2385 28.7802 28.1906 29.0144 27.922 29.3493C27.7358 29.5817 27.5204 29.7208 27.5204 29.9916V30.4052C27.5204 30.5864 27.6374 30.698 27.8289 30.8151C27.6214 31.0164 27.4193 31.1061 27.3049 31.3458C27.2198 31.5307 27.1719 31.6642 26.9645 31.7923C26.8102 31.882 26.64 31.871 26.4698 31.9406C25.7144 32.2645 24.8819 32.4713 24.8819 33.088V33.4595C24.8819 33.6553 24.8819 33.7614 24.8952 33.959C24.6266 33.9792 24.3792 33.9206 24.217 34.0652C23.8765 34.3616 23.693 34.702 23.1371 34.702C22.7435 34.702 22.5653 34.4897 22.1716 34.4897H21.3232C20.8604 34.4897 20.7673 34.1603 20.4215 33.959C20.0731 33.7559 19.8789 33.6242 19.6794 33.3423C19.5092 33.1026 19.5331 32.9068 19.2778 32.7055C18.8921 32.3962 18.4134 32.2425 18.4134 31.8344C18.4134 31.7118 18.5065 31.6423 18.5065 31.5215V31.3458C18.1447 31.3092 17.9426 31.2287 17.6421 31.0915C17.4559 31.0055 17.4027 30.8572 17.1793 30.8572C16.908 30.8572 16.8096 31.0274 16.5622 31.0915C16.2297 31.1756 16.0223 31.1756 15.6659 31.1756C15.1419 31.1756 15.118 30.7127 14.6472 30.5589C14.1764 30.4052 13.7828 30.5059 13.3812 30.2844C13.1338 30.1454 12.9875 30.0557 12.7641 29.902C12.7109 29.8635 12.7189 29.794 12.6418 29.794C12.1949 29.794 12.0619 30.0648 11.7454 30.2844C11.3305 30.5699 11.0273 30.7127 10.4794 30.8773C10.2959 30.9322 10.2187 31.0274 10.0166 31.0274C9.76924 31.0274 9.6788 30.8883 9.46071 30.8151C9.22931 30.7346 8.93674 30.698 8.93674 30.5168C8.93674 30.2405 9.33038 30.1728 9.5538 29.9441C9.82509 29.6677 9.83307 29.4609 10.0485 29.1572L9.9235 29.2212L9.16814 29.3273C9.09898 29.3219 9.06706 29.3164 8.99791 29.3072C9.01387 29.1736 9.02983 29.1041 9.02983 28.9723C9.02983 28.6905 8.89152 28.5039 8.56704 28.33C8.79046 28.0153 8.98462 27.6913 9.49262 27.6913C9.9235 27.6913 10.1256 27.9256 10.5565 27.9256C10.7347 27.9256 10.881 27.9256 11.006 27.8414C11.1895 27.7133 11.1124 27.512 11.3438 27.4169C11.6151 27.3052 11.8704 27.2082 11.8704 26.9905C11.8704 26.6245 11.53 26.4653 11.3757 26.1212C11.2906 25.9291 11.3225 25.8065 11.2534 25.6107C11.2135 25.5045 11.0831 25.4515 11.0831 25.3398V24.8622C11.0831 24.7561 11.0964 24.692 11.0964 24.5859C11.0964 24.24 11.0911 24.0442 11.1284 23.6983C10.7267 23.6983 10.5326 23.6215 10.1309 23.5794C10.0352 23.6672 9.96338 23.7697 9.91019 23.8996C9.8038 24.1504 9.64954 24.3992 9.27717 24.3992C8.99524 24.3992 8.84097 24.3571 8.55904 24.3571C8.31434 24.3571 8.22656 24.509 8.08827 24.6444C8.00049 24.7323 8.00049 24.811 7.88613 24.8878C7.76378 24.9738 7.67069 25.0086 7.56164 25.1001C7.19194 25.4222 6.91001 25.5704 6.39136 25.7699C6.05091 25.8998 5.86473 25.9931 5.54024 26.1414C5.39928 26.2054 5.29288 26.2457 5.20245 26.3427C4.92318 26.6318 5.13596 26.9832 4.70774 27.1716C4.24229 27.3784 3.88854 27.4535 3.59597 27.7774C3.29542 28.1086 3.21829 28.3684 2.74751 28.5954C2.25812 28.8278 2.08523 29.04 1.71287 29.3603C1.50806 29.5378 1.23943 29.5158 1.00271 29.6787C0.957492 29.7098 0.957492 29.7519 0.912285 29.7848C0.789942 29.8672 0.664924 29.9203 0.664924 30.0374V30.7108C0.664924 30.7675 0.630344 30.7968 0.60109 30.8462L0.539918 30.8572C0.539918 30.9505 0.547906 30.9999 0.547906 31.0933C0.547906 31.2287 0.247361 31.2415 0.247361 31.3769C0.247361 31.4538 0.30587 31.4977 0.34045 31.5691C0.428225 31.7521 0.433539 31.8692 0.433539 32.0632C0.433539 32.2407 0.383006 32.3596 0.215444 32.4932C0.11703 32.5719 0 32.614 0 32.7201C0 32.8556 0.138308 32.9178 0.263314 33.0239C0.444178 33.1795 0.547906 33.2783 0.742072 33.4265C1.05059 33.6626 1.23412 33.7962 1.54265 34.0323C1.84055 34.2592 1.91767 34.4477 2.26876 34.627C2.50016 34.746 2.59591 34.8539 2.73155 35.0314C2.8007 35.1229 2.88581 35.1778 2.88581 35.284V35.37C2.73953 35.37 2.66239 35.4139 2.51611 35.4139C2.38579 35.4139 2.30865 35.3919 2.17566 35.3919C2.0879 35.3919 1.97618 35.4029 1.97618 35.4633V35.6811C1.97618 35.7872 1.82192 35.8256 1.82192 35.9318V36.1386C1.82192 36.2703 1.59052 36.3106 1.59052 36.4442C1.59052 36.5302 1.76341 36.5229 1.83787 36.5924C1.93629 36.6857 1.97884 36.7461 2.08523 36.8358C2.23949 36.9712 2.38578 37.0426 2.63845 37.07C3.10922 37.1213 3.2768 37.3464 3.5667 37.6007C3.96034 37.9466 4.29812 38.0784 4.6306 38.4608C4.81679 38.6731 4.81944 38.8323 4.95508 39.0666C5.0987 39.3026 5.10137 39.4655 5.10137 39.7217V40.0255C5.10137 40.2884 4.97349 40.4393 4.7859 40.6605L4.7689 40.6806C4.63326 40.8435 4.47367 40.9679 4.19706 40.9679C3.94438 40.9679 3.81671 40.902 3.5667 40.8618C3.42308 40.8398 3.322 40.8453 3.19433 40.7977C3.12519 40.7721 3.13316 40.7153 3.08794 40.6696C3.03741 40.6202 2.94699 40.6257 2.86985 40.5964C2.76612 40.7739 2.5959 40.891 2.31663 40.9148C2.26876 41.2973 2.03735 41.4931 2.03735 41.8756C2.03735 42.0878 2.16767 42.205 2.36184 42.3697C2.56929 42.5453 2.67835 42.6625 2.96294 42.7832C3.04006 42.8162 3.064 42.8656 3.14912 42.8894C3.51084 42.9919 3.75022 42.9772 4.09067 43.1126C4.346 43.2133 4.46835 43.2956 4.72369 43.3999C5.18116 43.5884 5.47108 43.6781 5.83546 43.9416C5.94185 44.0203 5.99238 44.099 6.14398 44.1319C6.42591 44.1996 6.64136 44.1429 6.89936 44.2491C7.29033 44.4083 7.41534 44.5913 7.80899 44.7377C8.20795 44.8859 8.48989 44.906 8.9048 45.025C9.82774 45.2885 10.3331 45.455 11.2826 45.6947C11.7933 45.821 12.0167 45.9839 12.5034 46.1394C12.679 46.1962 12.796 46.2254 12.9343 46.3206C13.1763 46.4871 13.3093 46.5805 13.5673 46.7342C13.8599 46.9099 14.1392 46.9465 14.2615 47.2027C14.2961 47.2685 14.3573 47.2978 14.3998 47.3619C14.4982 47.5083 14.477 47.6144 14.5541 47.7645C14.6099 47.8743 14.7323 47.9109 14.7855 48.0207C14.8573 48.1616 14.9823 48.2165 15.1259 48.3281C15.2696 48.4397 15.3547 48.5459 15.5728 48.5623C15.8175 48.5806 15.9744 48.5989 16.1606 48.7106C16.3468 48.8222 16.3893 48.9356 16.5915 49.029C16.9851 49.2101 17.2404 49.4114 17.2404 49.7354C17.2404 49.8946 17.1633 49.9842 17.1633 50.1434C17.1633 50.2258 17.2404 50.277 17.3335 50.3246C17.4878 50.4051 17.5649 50.4545 17.7192 50.5369C17.9506 50.6595 17.9346 50.8242 18.0596 51.0035C18.2751 51.3256 18.3017 51.5416 18.3363 51.8966C18.3522 52.0722 18.4666 52.1601 18.5996 52.3101C18.9081 52.667 19.2326 52.7987 19.5092 53.1611C19.6475 53.3441 19.8018 53.4502 19.8018 53.6588C19.8018 53.7412 19.6635 53.7686 19.6635 53.851C19.6635 53.9681 19.8443 53.9864 19.972 54.0633C20.1395 54.1639 20.1848 54.2572 20.3124 54.3817C20.4933 54.5592 20.5811 54.6745 20.7141 54.8703C20.996 55.2839 21.4322 55.3937 21.9641 55.6663C22.1104 55.8676 22.3604 55.8951 22.6583 55.9957C22.8392 56.0579 22.8951 56.1549 22.9669 56.283C23.1796 56.6417 23.5919 56.7076 24.0175 56.962C24.4297 57.209 24.5946 57.4249 24.7276 57.7909C24.7569 57.8806 24.8686 57.9044 24.943 57.9813C25.1319 58.1789 25.2835 58.3088 25.2835 58.5449C25.2835 58.6693 24.975 58.6638 24.975 58.7883C24.975 58.8377 25.0441 58.8468 25.0973 58.8743C25.1931 58.9237 25.2516 58.9621 25.3447 59.0115C25.6984 59.2092 26.0575 59.1964 26.3314 59.4471C26.6639 59.7527 26.9964 59.9338 26.9964 60.3163V60.6292C26.9964 60.8525 26.749 60.955 26.749 61.1782C26.749 61.3136 26.9485 61.3484 27.0416 61.4655C27.1506 61.5991 27.2038 61.6833 27.3341 61.8059C27.5549 62.009 27.8448 62.1115 27.8448 62.3677C27.8448 62.4427 27.7969 62.4848 27.7969 62.5599C27.7969 62.644 27.8714 62.6843 27.9219 62.7612C27.9884 62.8618 27.9406 62.9442 28.0283 63.0375C28.1028 63.1144 28.2198 63.1144 28.3369 63.1546C28.539 63.2242 28.6427 63.2809 28.8316 63.3669V63.581C28.8316 63.6597 28.781 63.7274 28.6773 63.7494C28.555 63.775 28.414 63.7603 28.3688 63.8445L28.4459 63.9616C28.6427 64.0165 28.6268 64.1684 28.6773 64.3112H28.7518C28.9991 64.3112 28.8103 64.0092 29.0178 63.9195C29.0789 63.8921 29.1401 63.8976 29.2172 63.8976C29.3423 63.8976 29.5098 63.8976 29.5098 63.9818C29.5098 64.0385 29.4486 64.0678 29.4353 64.1208C29.3981 64.238 29.4034 64.3112 29.3263 64.4173C29.2784 64.485 29.1561 64.4923 29.1561 64.5674C29.1561 64.6497 29.2864 64.6607 29.3555 64.7266C29.4353 64.7998 29.4274 64.8766 29.5258 64.9388C29.7731 65.0871 30.0391 64.9754 30.3716 65.012C30.3955 65.2444 30.3689 65.3762 30.3716 65.6068C30.4673 65.6342 30.6083 65.6397 30.6083 65.7148C30.6083 65.788 30.5285 65.8282 30.5285 65.9014V66.1302C30.5285 66.2217 30.6429 66.2546 30.6854 66.3406C30.7413 66.4522 30.7812 66.5181 30.8078 66.6371C30.8689 66.9079 30.8663 67.1001 31.1322 67.2959C31.3477 67.4587 31.4487 67.5758 31.6403 67.7534C31.8956 67.9894 32.2121 68.1139 32.2121 68.4121C32.2121 68.5128 32.119 68.5604 32.119 68.661C32.119 68.769 32.2387 68.8129 32.2573 68.9209C32.2813 69.0618 32.236 69.1423 32.2573 69.2832C32.2813 69.4278 32.4967 69.4516 32.5685 69.5907C32.6058 69.673 32.5632 69.7279 32.5818 69.8139C32.6244 70.0024 32.7068 70.1049 32.7068 70.297C32.7068 70.3355 32.6749 70.3574 32.6749 70.3977C32.6749 70.5057 32.8052 70.5404 32.8903 70.6301C33.1138 70.8625 33.3079 70.965 33.4781 71.2157C33.5712 71.3511 33.5739 71.4536 33.7255 71.5652C33.8319 71.6476 33.9596 71.6585 34.05 71.7574C34.1271 71.8415 34.1351 71.9294 34.1883 72.0227C34.2309 72.052 34.2176 72.0941 34.2654 72.1179C34.3692 72.1709 34.4995 72.1874 34.5128 72.2771C34.5314 72.418 34.4809 72.5022 34.5287 72.6376C34.5899 72.8078 34.7282 72.8828 34.8825 73.02C34.9676 73.0969 34.9836 73.1664 35.0979 73.2232C35.449 73.397 35.5953 73.5727 35.715 73.86C35.8081 74.0796 35.9943 74.1674 36.1938 74.3486C36.473 74.5957 36.6645 74.7164 36.888 74.9854C37.0236 75.1483 36.9465 75.3075 37.1513 75.432C37.2098 75.4667 37.2709 75.4612 37.3374 75.485C37.4598 75.5308 37.5635 75.5454 37.63 75.6333C37.6965 75.7211 37.6327 75.7998 37.7071 75.8876C37.9199 76.1402 38.1247 76.2866 38.1247 76.5794C38.1247 76.658 38.0316 76.6947 38.0316 76.7752C38.0316 76.8831 38.2045 76.9051 38.263 77.0039C38.3508 77.154 38.3668 77.2565 38.4013 77.4175C38.4439 77.6096 38.5556 77.7103 38.5556 77.9043V78.1184C38.3694 78.1367 38.2019 78.208 38.2019 78.3362C38.2019 78.4826 38.1939 78.5759 38.2923 78.7021C38.4333 78.8778 38.6407 78.9181 38.912 79.0004C39.2844 79.1139 39.4812 79.2017 39.8376 79.3408C40.1461 79.4598 40.3004 79.5439 40.6089 79.6702C40.7898 79.7416 40.9414 79.7379 41.0877 79.8386C41.3137 79.9959 41.4334 80.0856 41.6728 80.232C41.7792 80.2869 41.8856 80.3034 41.9202 80.3912C41.9627 80.5029 41.9042 80.5925 41.9973 80.6895C42.1569 80.8542 42.3883 80.8853 42.492 81.0701C42.5184 81.1192 42.5573 81.152 42.6008 81.1827C42.645 81.2138 42.6938 81.2427 42.7394 81.2842C42.9575 81.48 43.125 81.6172 43.125 81.868C43.125 81.9649 42.8457 81.9393 42.8457 82.0381C42.8457 82.104 42.9388 82.1223 42.9708 82.1864C43.0904 82.4389 43.133 82.5945 43.3405 82.8122L43.3441 82.816C43.5044 82.9823 43.6171 83.0992 43.6171 83.299V83.687C43.6171 83.9139 43.9283 83.9761 44.1118 84.1609C44.3219 84.3695 44.4044 84.5233 44.4044 84.774V84.9368C44.4044 84.9844 44.4762 84.9954 44.5134 85.032C44.6517 85.1601 44.7528 85.237 44.9602 85.3083C45.2688 85.4145 45.439 85.4822 45.7023 85.6267C46.0428 85.8189 46.2582 85.9141 46.5348 86.1483C46.7104 86.2947 46.8832 86.3807 46.8832 86.5692V86.8455C46.8832 86.9205 46.7981 86.9553 46.7981 87.0285C46.7981 87.0816 46.8593 87.1035 46.9072 87.1456C47.0455 87.2755 47.1678 87.3323 47.3221 87.4531C47.4232 87.5336 47.3992 87.6233 47.4923 87.7093C47.5775 87.788 47.6732 87.8063 47.8009 87.8575C48.0642 87.9636 48.0802 88.1265 48.1732 88.3241C48.2424 88.4815 48.3142 88.5803 48.3727 88.7395C48.4765 88.8603 48.4871 88.9701 48.6493 89.058C48.8515 89.1659 49.035 89.1751 49.2052 89.3123C49.3169 89.4038 49.2983 89.488 49.3462 89.5996C49.3994 89.7296 49.4446 89.7991 49.5005 89.929C49.5802 90.1193 49.7026 90.2127 49.7771 90.4067C49.9154 90.7781 49.9739 91.0728 50.4553 91.2667C50.8223 91.4131 50.9952 91.5394 51.2745 91.7663C51.3516 91.8304 51.3543 91.8908 51.4288 91.9567C51.6681 92.1689 51.7958 92.2897 51.9687 92.5313C52.1682 92.8094 52.3304 92.9503 52.4927 93.2321C52.6363 93.4792 52.9714 93.5652 52.9714 93.8324C52.9714 94.3393 52.8597 94.6248 52.6948 95.1225C52.5911 95.4354 52.5778 95.6184 52.4474 95.9296C52.3517 96.1583 52.2001 96.2608 52.123 96.4913L52.0618 96.5023C52.0139 96.4364 51.958 96.4017 51.9235 96.3321C51.8836 96.2553 51.857 96.1638 51.7373 96.1638C51.6256 96.1638 51.583 96.237 51.474 96.248C51.3756 96.2589 51.2984 96.2205 51.2133 96.2589C51.0857 96.3175 51.1362 96.4181 51.1202 96.5243C51.1016 96.6432 51.0112 96.7018 51.0112 96.8207C51.0112 96.936 51.2319 96.9488 51.3968 96.9488C51.5671 96.9488 51.6442 96.8628 51.8144 96.8628C51.8596 96.8628 51.8756 96.9031 51.9075 96.9269C51.958 96.9964 52.0139 97.0312 52.0139 97.1062C52.0139 97.3606 52.0112 97.5033 52.0112 97.7577C52.0112 97.9096 51.9926 98.0011 51.9527 98.1493C51.9368 98.2188 51.8517 98.2426 51.8463 98.314C51.8783 98.3836 52.1203 98.8868 52.1389 98.8648C52.2028 98.7862 52.1974 98.669 52.3304 98.669C52.5006 98.669 52.5246 98.8081 52.6629 98.8722C52.9076 98.9856 53.0645 99.0277 53.3119 99.1375C53.6124 99.2693 53.6151 99.4651 53.7268 99.6993V99.7743H53.4954V99.8622C53.4954 99.9592 53.631 99.9939 53.7135 100.071C53.8012 100.153 53.8943 100.192 54.038 100.221C54.1337 100.239 54.1417 100.305 54.2055 100.358C54.3412 100.464 54.4077 100.534 54.5779 100.612L54.6071 100.626C54.8191 100.725 55.0088 100.813 55.0088 100.993V101.2C55.0088 101.29 55.1551 101.304 55.2242 101.377C55.3386 101.495 55.4264 101.575 55.4264 101.714V101.923C55.4264 102.126 55.6418 102.248 55.9211 102.324C56.2243 102.402 56.2429 102.609 56.5381 102.715C57.1924 102.955 57.4743 103.162 58.0967 103.438C58.618 103.669 58.9266 103.756 59.4851 103.949C59.666 104.009 59.783 104.06 59.8708 104.181C59.9187 104.245 59.8628 104.298 59.9027 104.362C59.932 104.41 60.0064 104.41 60.0729 104.437C60.3948 104.574 60.4852 104.768 60.6288 105.01C60.6554 105.123 60.7512 105.167 60.8283 105.264C60.9134 105.374 60.9054 105.475 61.0597 105.541C61.3097 105.647 61.5039 105.628 61.8018 105.669C62.0549 105.702 62.1755 105.786 62.3448 105.905L62.371 105.923C62.5252 106.029 62.7433 106.069 62.7433 106.221C62.7433 106.346 62.371 106.287 62.371 106.412C62.371 106.523 62.5811 106.523 62.7433 106.54C62.9747 106.56 63.2194 106.624 63.2194 106.783C63.2194 106.855 63.2327 106.906 63.1742 106.964C63.1051 107.034 62.9268 107.017 62.9268 107.102C62.9268 107.217 63.1583 107.202 63.2513 107.294C63.3897 107.425 63.5359 107.501 63.7753 107.517C64.0386 107.532 64.161 107.632 64.3472 107.76C64.4323 107.819 64.4908 107.877 64.6131 107.877H64.9456C65.0892 107.877 65.1318 107.965 65.2435 108.026L65.279 108.045C65.4497 108.14 65.5617 108.203 65.7834 108.249C65.9483 108.284 66.0707 108.26 66.2143 108.324C66.3925 108.403 66.4856 108.469 66.6771 108.536C67.0282 108.655 67.233 108.717 67.5734 108.844C67.9112 108.972 68.0362 109.127 68.39 109.237C68.5948 109.301 68.6932 109.363 68.9006 109.417C69.3554 109.534 69.648 109.567 70.0284 109.779C70.0656 109.799 70.1241 109.803 70.1507 109.832C70.2092 109.892 70.1348 109.969 70.2119 110.022C70.3928 110.147 70.4859 110.24 70.7226 110.31C70.9912 110.39 71.1109 110.533 71.4035 110.533H71.9115C72.0657 110.626 72.1003 110.741 72.2971 110.787C72.5977 110.857 72.7945 110.84 73.0977 110.904C73.3158 110.95 73.4036 111.032 73.6084 111.095C73.8132 111.159 73.9861 111.162 74.1164 111.287C74.2228 111.387 74.1935 111.486 74.2866 111.594C74.3904 111.717 74.5606 111.711 74.7361 111.786C74.9729 111.887 74.9941 112.039 75.2122 112.158C75.5447 112.339 75.8027 112.399 76.1405 112.571C76.2708 112.637 76.3373 112.705 76.4942 112.731C76.7522 112.773 76.9251 112.729 77.1725 112.795C77.3613 112.846 77.3985 112.954 77.5448 113.049C77.6911 113.146 77.8374 113.155 78.0422 113.155H78.3587C78.5555 113.155 78.6539 113.228 78.8401 113.272C79.2657 113.378 79.4997 113.442 79.9359 113.518C80.2631 113.572 80.4386 113.62 80.7551 113.697C80.92 113.737 81.0158 113.765 81.186 113.794C81.3137 113.814 81.4786 113.818 81.4786 113.907V114.196C81.6116 114.297 81.7738 114.277 81.9573 114.325C82.1089 114.361 82.1807 114.431 82.343 114.431C82.4866 114.431 82.5638 114.398 82.7074 114.398C83.0106 114.398 83.0665 114.63 83.3484 114.707C83.6277 114.784 83.8271 114.802 84.0585 114.939C84.2048 115.027 84.3165 115.057 84.4575 115.143C84.5293 115.185 84.532 115.245 84.6118 115.269C84.8615 115.348 85.0669 115.297 85.3004 115.329C85.3528 115.336 85.4067 115.348 85.4628 115.366C85.6516 115.426 85.6942 115.527 85.8165 115.64C86.0825 115.887 86.3538 116.05 86.8059 116.067C87.1331 116.08 87.3113 116.14 87.6384 116.162C87.8938 116.178 88.0347 116.173 88.2874 116.204C88.8486 116.275 89.1359 116.394 89.6598 116.555C90.0083 116.661 90.1918 116.74 90.5243 116.863L90.563 116.877C90.7844 116.959 90.9427 117.017 91.0961 117.159C91.261 117.315 91.3025 117.438 91.3637 117.621L91.3727 117.648C91.4312 117.823 91.7211 117.798 91.9605 117.86C92.2451 117.939 92.3701 118.043 92.6387 118.147C92.8701 118.235 93.0244 118.347 93.0244 118.53C93.0244 118.832 93.6574 118.742 94.091 118.795C94.5883 118.857 94.7373 119.119 95.1389 119.326C95.341 119.43 95.3623 119.549 95.5086 119.688C95.6442 119.818 95.8384 119.809 96.0645 119.847C96.3544 119.895 96.498 119.979 96.7906 120.038C96.9981 120.08 97.1231 120.08 97.3305 120.124C97.5779 120.173 97.7428 120.148 97.9636 120.239C98.1604 120.321 98.2082 120.433 98.3971 120.526C98.6046 120.627 98.8093 120.526 99.0434 120.59C99.187 120.627 99.1977 120.717 99.2908 120.803C99.5461 121.037 99.8865 121.068 100.078 121.333C100.163 121.451 100.19 121.522 100.216 121.652C100.238 121.749 100.307 121.796 100.341 121.886C100.437 122.133 100.472 122.276 100.472 122.532V123.01C100.472 123.121 100.387 123.176 100.387 123.288C100.387 123.407 100.631 123.392 100.804 123.405C101.03 123.421 101.105 123.535 101.299 123.617C101.629 123.76 101.823 123.84 102.163 123.967C102.49 124.093 102.584 124.258 102.919 124.371C103.211 124.472 103.209 124.755 103.536 124.765C103.913 124.772 104.123 124.896 104.4 125.072C104.666 125.242 104.948 125.259 105.126 125.476C105.185 125.55 105.171 125.612 105.219 125.689C105.302 125.824 105.528 125.795 105.666 125.901C105.991 126.144 106.195 126.256 106.576 126.452C106.927 126.512 107.028 126.673 107.286 126.834C107.44 126.931 107.576 126.95 107.781 126.995C107.876 127.016 107.916 127.052 108.012 127.069C108.204 127.103 108.339 127.061 108.52 127.122C108.791 127.215 108.85 127.347 109.06 127.493C109.374 127.709 109.595 127.788 109.911 127.993L109.922 128C110.028 127.936 110.156 127.802 110.31 127.802C110.589 127.802 110.72 127.951 110.999 127.951H111.6C111.73 127.951 111.738 127.834 111.855 127.802C112.034 127.749 112.156 127.753 112.35 127.738L112.368 127.737C113.275 127.663 113.805 127.619 114.632 127.334C114.842 127.266 114.81 127.111 114.911 126.973C115.026 126.814 115.159 126.734 115.313 126.591C115.651 126.278 115.93 126.071 115.93 125.678C115.93 125.354 115.837 125.173 115.837 124.849C115.837 124.583 115.752 124.408 115.497 124.212C115.382 124.122 115.159 124.122 115.159 124C115.159 123.894 115.313 123.861 115.374 123.765C115.427 123.676 115.366 123.606 115.406 123.511C115.467 123.363 115.675 123.277 115.906 123.277H116.539C116.888 123.277 117.01 123.087 117.318 122.98C117.906 122.777 118.462 122.704 118.707 122.28L118.616 121.939V121.339C118.616 121.211 118.515 121.143 118.398 121.046C118.223 120.898 118.167 120.75 117.936 120.644C117.744 120.559 117.534 120.506 117.534 120.345C117.534 120.091 117.951 120.065 118.276 119.943C118.771 119.756 118.909 119.518 119.388 119.306C120.228 118.932 120.521 118.561 121.178 118.052C121.369 117.899 121.433 117.77 121.641 117.628C121.84 117.489 122.058 117.43 122.135 117.245C122.226 117.038 122.157 116.826 122.444 116.735C122.851 116.603 123.308 116.788 123.585 116.544C123.832 116.327 123.675 116.058 123.675 115.778L123.837 115.503C123.888 115.276 124.053 114.996 124.205 114.802C124.372 114.594 124.643 114.414 124.986 114.332C125.247 114.27 125.59 114.226 125.76 114.072L124.439 113.344C123.923 113.285 123.587 113.388 123.069 113.388L122.454 113.124L120.172 109.082L120.526 108.558C120.805 108.09 121.093 107.841 121.3 107.347C121.417 107.076 121.84 107.087 122.228 107.006C122.598 106.926 122.907 106.767 122.907 106.498C122.907 106.221 122.404 106.221 122.074 106.071C121.795 105.945 121.726 105.791 121.518 105.605C121.231 105.35 121.239 105.116 120.898 104.882C120.683 104.734 120.374 104.708 120.374 104.499C120.374 104.293 120.654 104.203 120.654 103.996V103.709C120.654 103.321 121.332 103.332 121.734 103.056C121.734 102.715 121.656 102.525 121.734 102.184C121.941 101.941 122.428 101.983 122.691 101.76C122.853 101.623 122.79 101.467 122.907 101.313C123.13 101.028 123.454 100.947 123.864 100.783C124.133 100.671 124.449 100.607 124.449 100.389C124.449 100.168 124.327 100.051 124.327 99.8275C124.327 99.6792 124.542 99.6097 124.758 99.5932C125.135 99.5621 125.338 99.5402 125.715 99.509V99.2053C125.715 99.0204 125.622 98.9143 125.529 98.7441C125.391 98.4843 125.585 98.2226 125.284 98.0432C125.09 97.9261 124.819 98.0213 124.665 97.873C124.497 97.7083 124.574 97.5601 124.51 97.3625C124.481 97.2563 124.388 97.1978 124.388 97.088C124.388 96.8117 124.481 96.6524 124.481 96.3761C124.481 96.0248 124.048 95.8966 123.71 95.6423C123.609 95.5673 123.431 95.5728 123.431 95.4721C123.431 95.4136 123.454 95.3825 123.462 95.3239H123.856C124.165 95.3239 124.441 95.355 124.635 95.1958C124.928 94.9524 124.766 94.7072 124.79 94.3887C124.814 94.1088 124.883 93.9532 124.883 93.6732V92.4929C124.883 92.2605 124.774 92.1214 124.774 91.8872V90.6446C124.774 90.5348 124.635 90.4854 124.635 90.3756C124.635 90.2201 124.843 90.178 124.973 90.0553L124.994 90.036C125.253 89.7931 125.415 89.6414 125.715 89.4185C125.931 89.2538 125.963 89.0525 126.271 88.972C126.641 88.8768 127.197 88.9464 127.197 88.6756C127.197 88.5054 126.702 88.5694 126.702 88.3992C126.702 88.229 126.888 88.1394 127.104 88.0589C127.505 87.9051 127.676 87.7295 128 87.508L119.295 76.6946C118.803 76.6379 118.409 76.6306 118.021 76.616C117.63 76.6013 117.241 76.5812 116.763 76.5043C116.348 76.4403 116.207 76.1639 115.776 76.1639C115.127 76.1639 114.957 76.5794 114.417 76.8227C114.094 76.9703 113.842 77.0126 113.465 77.0762L113.459 77.0771C113.02 77.1521 112.773 77.2692 112.318 77.2692C111.786 77.2692 111.454 77.2272 110.959 77.0991C110.552 76.9984 110.366 76.8502 110.033 76.6525C109.871 76.5574 109.818 76.3982 109.603 76.3982C109.153 76.3982 109.031 76.7166 108.584 76.7587L108.738 68.9849V68.5549C108.738 68.1779 109.693 68.2145 109.693 67.8375C109.693 67.413 108.954 67.3068 108.954 66.8823C108.954 66.7066 109.209 66.659 109.355 66.5218C109.664 66.2381 109.775 66.0313 110.081 65.755C110.143 65.6983 109.081 65.8758 108.922 65.927C108.174 66.1649 108.057 66.6059 107.379 66.9244C106.823 67.1842 106.43 67.2794 105.959 67.6051C105.257 68.0882 104.908 68.4433 104.014 68.7306C103.504 68.8953 103.187 68.9794 102.748 69.2192C102.501 69.3509 102.464 69.6016 102.147 69.6016C101.924 69.6016 101.831 69.4735 101.607 69.4735C101.304 69.4735 101.235 69.7078 100.958 69.7718C100.472 69.8871 100.147 69.8139 99.6312 69.8139C98.3891 69.8139 97.6949 69.7718 96.4502 69.7498L93.2106 69.7444C93.2266 69.5376 93.3329 69.4314 93.3329 69.2246V68.661C93.3329 68.295 92.8781 68.0077 92.3462 68.0077V67.5356C92.3462 67.3013 92.176 67.1842 92.0057 66.9884C91.8674 66.8237 91.9818 66.67 91.9127 66.4778C91.7823 66.3717 91.6733 66.3662 91.511 66.2875C91.1121 66.0807 90.8088 65.9471 90.3008 65.9471H89.3912C88.8965 65.9471 88.6811 65.7239 88.2103 65.6287C87.8459 65.5592 87.6225 65.6068 87.2528 65.5445C86.4892 65.4144 86.0053 65.3504 85.3004 65.3357C85.1925 65.3334 85.08 65.3322 84.9601 65.3322H83.1727C82.9626 65.3322 83.7526 64.8088 83.7632 64.7997C84.1409 64.4977 84.1409 64.205 84.5665 63.9286C84.7899 63.7859 85.0611 63.7072 85.0611 63.4894V62.9679C85.0611 62.3256 84.3749 62.0712 83.827 61.5496C83.702 61.4289 83.5477 61.3813 83.4866 61.2312C83.3483 60.8963 83.2472 60.6694 82.8376 60.4663C82.6302 60.3656 82.428 60.4773 82.1886 60.4242C82.0131 60.3821 82.0503 60.2339 81.912 60.1479C81.7418 60.0417 81.5423 59.9887 81.5423 59.8295C81.5423 59.3409 81.295 58.9968 80.7391 58.704C80.3773 58.5137 80.0742 58.4972 79.6885 58.3216C79.2948 58.1404 79.5342 57.8128 79.3188 57.5145C79.2257 57.3809 79.0555 57.3389 78.9491 57.2181C78.6565 56.9033 78.7788 56.6325 78.6698 56.261C78.5634 55.884 78.215 55.7303 77.8054 55.4759C77.5447 55.3112 77.066 55.3423 77.066 55.0935C77.066 54.7476 78.1139 54.9288 78.1139 54.5829C78.1139 54.3285 77.8213 54.195 77.4968 54.0742C77.2894 53.9936 77.2282 53.871 77.0048 53.818C76.8027 53.7704 76.6324 53.8125 76.4489 53.7338C76.1084 53.5911 76.0632 53.3879 75.7999 53.1811C75.4595 52.9103 75.268 52.7511 74.9036 52.5022C75.1669 52.1984 75.5526 52.0722 75.5526 51.7208V51.3072C75.5526 51.2267 75.4914 51.1791 75.4914 51.1004C75.4914 51.062 75.5446 51.0474 75.5526 51.0144H75.8292L76.1404 51.1206C76.3718 51.1059 76.417 50.9303 76.6324 50.8882C77.0261 50.8076 77.3346 50.9193 77.683 50.7601C77.6671 50.5844 77.574 50.5258 77.5287 50.3556C77.4756 50.1598 77.5208 50.0061 77.3426 49.8469C77.1192 49.6438 76.8186 49.5486 76.8186 49.2942C76.8186 49.0509 77.034 48.9337 77.1271 48.6995C77.2442 48.4287 77.1271 48.2164 77.3745 47.9986C77.8825 47.5466 78.3533 47.3874 79.0421 47.0635C79.4571 46.8677 79.5901 46.6444 80.0289 46.4688C80.3534 46.3425 80.5236 46.2363 80.8322 46.0863C81.0157 46.0021 81.2098 46.0186 81.3561 45.896C81.6407 45.6617 81.7498 45.4659 82.1274 45.3214C82.569 45.153 83.0477 45.3214 83.3616 45.0469C83.7259 44.7321 83.5477 44.4302 83.5477 44.0312V43.5957C83.5477 43.1071 83.178 42.8472 83.178 42.3586C83.178 41.945 83.6408 41.7639 83.6408 41.3503C83.6408 41.2021 83.5158 41.116 83.5158 40.9678C83.5158 40.7336 83.8642 40.6805 84.0717 40.5012C84.3031 40.3035 84.3962 40.1608 84.6276 39.9686C84.7659 39.8534 84.984 39.8954 85.1542 39.8003C85.2188 39.762 85.2654 39.7215 85.3004 39.6788C85.4113 39.5437 85.4042 39.3863 85.4628 39.2055Z"/>
</svg>
