<svg width="130" height="131" viewBox="0 0 130 131" xmlns="http://www.w3.org/2000/svg">
<path fill-rule="evenodd" clip-rule="evenodd" d="M46.5144 4.54155C23.881 4.54155 5.47227 19.8193 5.47227 38.6032C5.47227 57.3871 23.881 72.6649 46.5144 72.6649C69.1478 72.6649 87.5565 57.3871 87.5565 38.6032C87.5565 19.8193 69.1478 4.54155 46.5144 4.54155ZM46.5144 77.2065C20.8658 77.2065 0 59.8895 0 38.6032C0 17.317 20.8658 0 46.5144 0C72.163 0 93.0288 17.317 93.0288 38.6032C93.0288 59.8895 72.163 77.2065 46.5144 77.2065ZM68.1147 52.5487C67.3323 53.4155 66.0415 53.5973 65.0502 52.9803L45.194 40.621C44.3142 40.0733 43.7794 39.1104 43.7794 38.0741V18.6334C43.7794 17.1223 45.0044 15.8973 46.5155 15.8973V15.8973C48.0266 15.8973 49.2516 17.1223 49.2516 18.6334V35.803C49.2516 36.8395 49.7867 37.8026 50.6667 38.3502L67.5985 48.8855C68.8741 49.6792 69.1213 51.4335 68.1147 52.5487V52.5487Z" fill="black"/>
<path d="M105.661 50.0308L126.763 69.3671" stroke-width="6" stroke-linecap="round" stroke-linejoin="round"/>
<path d="M116.212 59.699L101.266 71.5866" stroke-width="6" stroke-linecap="round" stroke-linejoin="round"/>
<path d="M108.733 77.5059L93.7943 65.6249C91.7318 63.9845 88.3877 63.9845 86.3252 65.6249L52.7141 92.3572C50.6515 93.9976 50.6515 96.6573 52.7141 98.2977L67.6523 110.179C69.7149 111.819 73.0589 111.819 75.1215 110.179L108.733 83.4464C110.795 81.806 110.795 79.1463 108.733 77.5059Z" stroke-width="6" stroke-linecap="round" stroke-linejoin="round"/>
<path d="M60.2286 104.225L30.3355 128" stroke-width="6" stroke-linecap="round" stroke-linejoin="round"/>
<path d="M51.2501 95.9497H93.0266" stroke-width="6" stroke-linecap="round" stroke-linejoin="round"/>
</svg>
