<svg width="128" height="128" viewBox="0 0 128 128" xmlns="http://www.w3.org/2000/svg">
<path fill-rule="evenodd" d="M9.51982 128C4.27057 128 0 124.995 0 121.3V11.1344C0 7.44076 4.27057 4.43422 9.51982 4.43422H39.9303V2.97753C39.9303 1.33302 41.8247 0 44.1618 0H83.8295C86.1644 0 88.0589 1.33302 88.0589 2.97753V4.43575H93.7899L118.478 4.43422C123.729 4.43422 128 7.44076 128 11.1344V121.3C128 124.995 123.729 128 118.478 128H9.51982ZM15.5766 11.878C12.8152 11.878 10.5766 14.1166 10.5766 16.878V115.556C10.5766 118.318 12.8152 120.556 15.5766 120.556H112.415C115.176 120.556 117.415 118.318 117.415 115.556V16.878C117.415 14.1166 115.176 11.878 112.415 11.878H88.0632V12.7682C88.0632 14.4112 86.1688 15.7458 83.8295 15.7458H44.164C41.8269 15.7458 39.9325 14.4128 39.9325 12.7682V11.878H15.5766Z"/>
<path d="M99 70H54C52.8954 70 52 70.8954 52 72V79C52 80.1046 52.8954 81 54 81H99C100.105 81 101 80.1046 101 79V72C101 70.8954 100.105 70 99 70Z"/>
<path d="M99 92H54C52.8954 92 52 92.8954 52 94V100C52 101.105 52.8954 102 54 102H99C100.105 102 101 101.105 101 100V94C101 92.8954 100.105 92 99 92Z"/>
<path fill-rule="evenodd" d="M22 84H43V68H22V84ZM36 78.6666H29V73.3333H36V78.6666Z"/>
<path fill-rule="evenodd" d="M22 105H43V89H22V105ZM36 99.6666H29V94.3333H36V99.6666Z"/>
<path fill-rule="evenodd" d="M74.8238 22.1589C75.7241 21.5188 76.9622 21.7371 77.5893 22.6464L85.1127 33.5555C85.7398 34.4648 85.5184 35.7208 84.6181 36.3608L84.2286 36.6378C83.3283 37.2778 82.0902 37.0595 81.4631 36.1502L78.6808 32.1158L76.0739 33.9692L78.2032 37.0567C78.8303 37.966 78.6089 39.222 77.7086 39.862L57.5066 54.2242C56.6064 54.8642 55.3682 54.6459 54.7411 53.7366L52.6118 50.6491L48.2827 53.7268C47.5061 54.2788 46.4381 54.0905 45.8972 53.3062C45.3563 52.5218 45.5473 51.4384 46.3238 50.8864L50.6529 47.8087L48.5236 44.7211C47.8965 43.8118 48.118 42.5559 49.0182 41.9158L69.2202 27.5536C70.1205 26.9136 71.3586 27.1319 71.9857 28.0412L74.115 31.1288L76.7219 29.2754L73.9397 25.2411C73.3126 24.3318 73.534 23.0758 74.4342 22.4358L74.8238 22.1589ZM77.643 38.4977L74.3782 33.7637L73.7252 32.8169L70.4604 28.0829L53.7763 39.9442L66.9547 46.0963L77.643 38.4977Z"/>
</svg>
