<svg width="128" height="128" viewBox="0 0 128 128" xmlns="http://www.w3.org/2000/svg">
<path fill-rule="evenodd" d="M47.3701 4.75537C24.3203 4.75537 5.57294 20.7524 5.57294 40.4207C5.57294 60.0889 24.3203 76.086 47.3701 76.086C70.4198 76.086 89.1672 60.0889 89.1672 40.4207C89.1672 20.7524 70.4198 4.75537 47.3701 4.75537ZM47.3701 80.8414C21.2497 80.8414 0 62.7091 0 40.4207C0 18.1323 21.2497 0 47.3701 0C73.4905 0 94.7402 18.1323 94.7402 40.4207C94.7402 62.7091 73.4905 80.8414 47.3701 80.8414ZM69.4111 54.9733C68.5945 55.9035 67.2208 56.0979 66.1782 55.4306L45.9676 42.4964C45.106 41.945 44.5847 40.9925 44.5847 39.9696V19.4322C44.5847 17.8933 45.8323 16.6457 47.3712 16.6457V16.6457C48.9101 16.6457 50.1577 17.8933 50.1577 19.4322V37.5916C50.1577 38.6147 50.6791 39.5673 51.541 40.1187L68.8785 51.2104C70.1707 52.037 70.4231 53.8204 69.4111 54.9733V54.9733Z"/>
<path fill-rule="evenodd" d="M104.817 52.3243C105.717 51.6842 106.955 51.9025 107.582 52.8118L126.865 80.7715C127.492 81.6808 127.27 82.9367 126.37 83.5768L123.03 85.9513C122.13 86.5913 120.891 86.373 120.264 85.4637L112.779 74.6092L108.064 77.9608L114.113 86.7319C114.74 87.6412 114.519 88.8971 113.618 89.5372L74.4488 117.384C73.5485 118.024 72.3104 117.806 71.6833 116.896L65.6344 108.125L56.8927 114.34C55.9924 114.98 54.7543 114.762 54.1272 113.853L52.0875 110.895C51.4604 109.986 51.6818 108.73 52.582 108.09L61.3237 101.875L55.2748 93.1038C54.6477 92.1946 54.8691 90.9386 55.7694 90.2986L94.9391 62.4517C95.8393 61.8116 97.0775 62.0299 97.7046 62.9392L103.754 71.7103L108.468 68.3587L100.982 57.5041C100.355 56.5948 100.576 55.3388 101.477 54.6988L104.817 52.3243ZM111.926 87.6355L104.741 77.218L103.305 75.1345L96.1202 64.717L65.9479 86.1673L92.5968 101.377L111.926 87.6355Z"/>
</svg>
