<svg width="25" height="25" xmlns="http://www.w3.org/2000/svg">
<path d="M 18 2.5 H 17 V 7 C 17 7.6 17.4 8 18 8 H 23 V 7.1 H 19 C 18.4 7.1 18 6.7 18 6.1 V 2.5 Z"/>
<path fill-rule="evenodd" d="M 24 23 C 24 23.6 23.6 24 23 24 H 2 C 1.4 24 1 23.6 1 23 V 2.5 C 1 1.9 1.4 1.5 2 1.5 H 12.5 H 18 L 23.7 6.8 C 23.9 7 24 7.3 24 7.6 V 12.8 V 23 Z M 23 22 C 23 22.6 22.6 23 22 23 H 3 C 2.4 23 2 22.6 2 22 V 3.5 C 2 2.9 2.4 2.5 3 2.5 H 17 H 18 L 23 7.1 V 8 V 22 Z"/>
<path d="M 7 7.6 C 7 7.3 7.2 7.1 7.4 7.1 H 15.6 C 15.8 7.1 16 7.3 16 7.6 V 7.6 C 16 7.8 15.8 8 15.6 8 H 7.4 C 7.2 8 7 7.8 7 7.6 V 7.6 Z"/>
<path d="M 7.5 10 C 7.2 10 7 9.8 7 9.5 V 9.5 C 7 9.2 7.2 9 7.5 9 H 17.5 C 17.8 9 18 9.2 18 9.5 V 9.5 C 18 9.8 17.8 10 17.5 10 H 7.5 Z"/>
<path d="M 7 11.5 C 7 11.2 7.2 11 7.5 11 H 17.5 C 17.8 11 18 11.2 18 11.5 V 11.5 C 18 11.8 17.8 12 17.5 12 H 7.5 C 7.2 12 7 11.8 7 11.5 V 11.5 Z"/>
<path d="M 9 14.5 C 9 14.2 8.8 14 8.5 14 H 8 C 7.4 14 7 14.4 7 15 V 16 C 7 16.6 7.4 17 8 17 V 17 H 10 H 15 H 17 V 17 C 17.6 17 18 16.6 18 16 V 16 C 18 15.4 17.6 15 17 15 H 9.5 C 9.2 15 9 14.8 9 14.5 V 14.5 Z"/>
<path d="M 11.4 18.5 L 12.5 19 L 13.6 18.5 L 12.5 18.1 L 11.4 18.5 Z"/>
<path d="M 17 17 H 15 L 12.5 18.1 L 13.6 18.5 L 17 17 Z"/>
<path d="M 10 17 H 8 L 11.4 18.5 L 12.5 18.1 L 10 17 Z"/>
<path d="M 16.4 20.7 C 16.7 20.8 17 20.6 17 20.3 V 20.3 C 17 20.1 16.9 20 16.7 19.9 L 13.6 18.5 L 12.5 19 L 16.4 20.7 Z"/>
<path d="M 8.3 19.9 C 8.1 20 8 20.1 8 20.3 V 20.3 C 8 20.6 8.3 20.8 8.6 20.7 L 12.5 19 L 11.4 18.5 L 8.3 19.9 Z"/>
</svg>
