<svg width="128" height="128" viewBox="0 0 128 128" xmlns="http://www.w3.org/2000/svg">
<path d="M4.84876 4.6231C4.64876 4.21759 4.79876 3.7107 5.19877 3.50794L11.2988 0.111782C11.6988 -0.141663 12.1988 0.0610929 12.4488 0.466605L14.8989 4.97792C24.149 2.13934 34.3991 6.19446 39.1991 15.1157L27.399 21.6546C29.349 25.3042 28.049 29.8155 24.449 31.8431C20.8489 33.8199 16.3489 32.502 14.3989 28.8524L2.54874 35.3913C-2.25131 26.47 -0.0512867 15.5212 7.29879 9.1851L4.84876 4.6231ZM88.1996 128H128V86.2323H88.1996V128ZM83.6496 86.5364H51.4992C45.8992 86.5364 41.3491 91.1491 41.3491 96.8263C41.3491 102.503 45.8992 107.116 51.4992 107.116H83.6496V86.5364ZM14.2989 128H83.5996V111.323H18.4489C16.1489 111.323 14.3489 113.199 14.3489 115.48V128H14.2989ZM39.0491 94.6974C39.0491 87.8037 33.5491 82.2786 26.749 82.2786C19.9489 82.2786 14.4489 87.8544 14.4489 94.6974C14.4989 101.54 19.9989 107.116 26.749 107.116C33.5491 107.116 39.0491 101.54 39.0491 94.6974ZM106.15 59.8234L99.2497 39.8519C97.8997 36.1009 95.3497 33.161 88.0996 33.161H56.1993C48.9492 33.2117 46.3492 36.1516 44.9992 39.9026L38.0991 59.8741C37.5991 61.1413 37.2991 64.0812 40.1491 66.0074L56.3993 76.8549C58.7493 78.4262 61.9493 77.7673 63.5494 75.3849C65.0994 73.0025 64.4494 69.7584 62.0993 68.1364L54.2993 62.9154L49.1992 59.5192L52.8492 49.3814H57.8493L54.8993 57.5931L64.6994 64.1319C66.8994 65.6019 68.3994 67.8322 68.9494 70.468C69.4994 73.1039 68.9494 75.7397 67.4994 77.97C66.8994 78.8824 66.1994 79.6427 65.3994 80.251H78.9495C78.1495 79.5921 77.4495 78.8317 76.8495 77.97C75.3995 75.7397 74.8995 73.0532 75.3995 70.468C75.9495 67.8322 77.4495 65.6019 79.6495 64.1319L89.4496 57.5931L86.4496 49.3308H91.4496L95.0997 59.4685L89.9996 62.8647L82.1995 68.0857C79.8495 69.657 79.1495 72.9011 80.7495 75.3342C82.2995 77.7166 85.4996 78.4262 87.8996 76.8042L104.15 65.9567C106.95 64.0306 106.65 61.1413 106.15 59.8234ZM75.2995 13.6457C74.5495 15.3185 72.8495 16.535 70.8994 16.535C68.9494 16.535 67.2494 15.3692 66.4994 13.6457H57.5993C57.4493 14.4568 57.3493 15.2678 57.3493 16.0788C57.3493 23.6821 63.4494 29.8662 70.9494 29.8662C78.4495 29.8662 84.5496 23.6821 84.5496 16.0788C84.5496 15.2171 84.4496 14.4061 84.2996 13.6457H75.2995ZM66.1994 10.4016C66.7494 8.2727 68.6494 6.65066 70.8994 6.65066C73.1495 6.65066 75.0995 8.22201 75.5995 10.4016H83.2996C81.1495 5.63688 76.4495 2.29141 70.9494 2.29141C65.4494 2.29141 60.7493 5.58619 58.5993 10.4016H66.1994Z" />
</svg>
